<svg id="Layer_1" enable-background="new 0 0 512.128 512.128" height="512" viewBox="0 0 512.128 512.128" width="512" xmlns="http://www.w3.org/2000/svg"><g><path d="m195.023 410.105c-95-88-160.5-227.5-69-319 5.916-5.916 11.778-10.733 18.056-16 8.519-7.147 18.612-11.288 28.944-12.49l-15.675-15.702c-20.051-20.085-52.038-21.328-73.777-3.09-6.278 5.267-2.188.036-8.056 6-99.957 101.59-53.244 241.885 47.971 342.216 67.348 66.761 152.1 108.466 230.831 98.622-54.62-10.575-109.449-34.383-159.294-80.556z" fill="#cee1f2"/><path d="m331.184 512.126c-13.396 0-27.087-1.256-41.027-3.786-61.378-11.139-125.569-47.398-180.75-102.097-55.605-55.119-92.885-119.395-104.971-180.989-14.097-71.836 5.552-137.35 56.823-189.458 6.241-6.344 12.847-12.447 19.634-18.141 14.353-12.041 32.538-18.251 51.194-17.487 18.731.767 36.343 8.499 49.591 21.77.086.086.172.174.257.262l33.836 35.161c17.246 17.366 24.641 42.051 19.784 66.073-4.853 24.002-21.258 43.841-43.883 53.068-14.779 6.028-24.207 11.381-26.726 13.192-18.632 18.985-30.493 49.833 39.198 119.645 22.615 22.654 56.11 52.771 85.766 52.771 12.031 0 23.074-5.091 33.734-15.558 1.387-2.033 6.178-10.195 12.357-25.591 9.177-22.859 29.047-39.444 53.153-44.366 24.013-4.903 48.693 2.501 66.055 19.809l34.753 33.631c.083.08.165.161.246.242 13.195 13.218 20.916 30.781 21.74 49.454.824 18.661-5.312 36.836-17.275 51.177-5.308 6.362-10.977 12.572-16.852 18.457-41.385 41.457-91.486 62.76-146.637 62.761zm-202.147-472.072c-7.906 0-15.859 2.729-22.435 8.245-5.815 4.879-11.478 10.11-16.83 15.55-42.181 42.87-57.686 94.583-46.085 153.702 10.561 53.819 43.901 110.741 93.879 160.283 49.499 49.067 106.226 81.437 159.732 91.147 58.659 10.646 109.871-5.463 152.215-47.879 5.037-5.046 9.896-10.369 14.445-15.821 11.544-13.837 10.696-33.86-1.95-46.638l-34.732-33.612c-.083-.08-.165-.161-.246-.242-7.96-7.974-18.851-11.257-29.874-9.005-11.059 2.257-19.818 9.575-24.033 20.076-2.796 6.964-12.543 30.314-20.582 38.367-18.469 18.5-39.541 27.88-62.631 27.88-44.029 0-84.091-34.476-114.075-64.511-18.009-18.04-43.458-45.577-56.491-76.298-16.077-37.898-9.927-72.605 17.788-100.366 8.416-8.431 32.311-18.565 39.434-21.47 10.347-4.22 17.558-12.953 19.783-23.958 2.242-11.09-1.046-22.032-9.022-30.022-.086-.086-.172-.174-.257-.262l-33.815-35.14c-6.708-6.656-15.434-10.026-24.218-10.026z" fill="#1428bf"/><path d="m492.103 239.107c-10.234 0-18.959-7.815-19.896-18.206-8.67-96.198-84.782-172.31-180.979-180.979-11.001-.991-19.115-10.713-18.124-21.714.99-11.002 10.719-19.117 21.714-18.124 55.701 5.02 108.23 29.637 147.911 69.317 39.68 39.68 64.297 92.209 69.316 147.91.992 11.001-7.123 20.723-18.124 21.714-.61.055-1.216.082-1.818.082zm-155.821-.03c10.479-3.496 16.139-14.823 12.643-25.302-7.845-23.514-26.251-42.402-49.236-50.527-10.412-3.682-21.841 1.777-25.521 12.192-3.682 10.414 1.777 21.841 12.191 25.522 11.446 4.046 20.651 13.568 24.623 25.472 2.795 8.378 10.597 13.676 18.969 13.676 2.096.001 4.231-.332 6.331-1.033zm78.573-.173c10.935-1.564 18.53-11.696 16.967-22.631-10.019-70.037-65.93-125.948-135.967-135.967-10.922-1.562-21.067 6.031-22.631 16.967-1.563 10.934 6.032 21.066 16.967 22.631 52.558 7.518 94.516 49.476 102.033 102.033 1.427 9.975 9.982 17.17 19.773 17.17.943.001 1.898-.066 2.858-.203z" fill="#df5cf0"/></g></svg>