<svg id="Layer_1" enable-background="new 0 0 512 512" height="512" viewBox="0 0 512 512" width="512" xmlns="http://www.w3.org/2000/svg"><g><path d="m81 392v-272c0-55.229 44.771-100 100-100h-61c-55.229 0-100 44.771-100 100v272c0 55.228 44.771 100 100 100h61c-55.229 0-100-44.772-100-100z" fill="#cee1f2"/><path d="m392 512h-272c-66.168 0-120-53.832-120-120v-272c0-66.168 53.832-120 120-120h272c66.168 0 120 53.832 120 120v272c0 66.168-53.832 120-120 120zm-272-472c-44.112 0-80 35.888-80 80v272c0 44.112 35.888 80 80 80h272c44.112 0 80-35.888 80-80v-272c0-44.112-35.888-80-80-80zm212 150c13.807 0 25-11.193 25-25s-11.193-25-25-25-25 11.193-25 25 11.193 25 25 25z" fill="#1428bf"/><path d="m428.152 279.933c-8.32-7.262-20.955-6.407-28.22 1.916l-33.843 38.772c-11.891 12.933-23.062 13.823-37.206 2.927 0 0-93.011-88.083-93.478-88.453-26.838-21.226-64.787-20.025-90.231 2.858-.414.372-58.742 62.344-58.742 62.344-7.568 8.045-7.182 20.703.863 28.271 8.047 7.569 20.704 7.181 28.271-.864l56.905-60.492c10.698-9.17 26.233-9.672 37.501-1.22 0 0 92.974 88.048 93.44 88.417 13.856 10.956 29.82 16.591 44.588 16.591 11.863-.389 30.565-4.719 47.77-23.562.101-.11.2-.221.298-.333l34-38.952c7.263-8.322 6.406-20.957-1.916-28.22z" fill="#df5cf0"/></g></svg>