<svg id="Layer_1" enable-background="new 0 0 512 512" height="512" viewBox="0 0 512 512" width="512" xmlns="http://www.w3.org/2000/svg"><g><path d="m81 434.042v-.5c0-10.77 8.73-19.5 19.5-19.5 28.443 0 51.5-23.057 51.5-51.5v-8.239c.772-21.826 13.208-40.814 31.187-51.097-8.942-5.184-19.292-8.164-30.322-8.164-33.128 0-60.116 26.416-61.278 59.261-.956-.04-1.917-.261-2.883-.261-37.654 0-68.234 30.831-68.698 68.383-.473 38.261 31.519 69.57 69.783 69.57h59.915c-37.944 0-68.704-20.009-68.704-57.953z" fill="#cee1f2"/><path d="m246.835 511.995h-158.131c-48.912 0-88.704-39.792-88.704-88.703 0-44.298 32.244-81.163 74.356-88.083 3.78-14.028 11.284-26.849 21.952-37.204 15.255-14.808 35.34-22.963 56.556-22.963 19.452 0 38.304 7.094 53.085 19.977 10.011 8.724 17.714 19.697 22.524 31.866 34.631 4.275 61.527 33.785 61.527 69.436 0 3.569-.376 6.987-.976 10.207 11.97 11.372 18.976 27.263 18.976 44.302 0 33.727-27.438 61.165-61.165 61.165zm-158.823-137.949c-26.537.376-48.012 22.323-48.012 49.246 0 26.855 21.848 48.704 48.704 48.704h158.131c11.67 0 21.165-9.495 21.165-21.165 0-7.901-4.362-15.092-11.383-18.767-9.028-4.725-13.061-15.482-9.363-24.977 1.278-3.283 2.746-7.473 2.746-10.765 0-16.213-13.778-29.915-30.109-29.969-.388.027-1.338.164-1.976.255-.7.101-1.389.199-2.055.281-10.675 1.321-20.495-6.038-22.208-16.663-3.235-20.059-20.771-35.185-40.789-35.185-22.36 0-40.498 17.556-41.291 39.969-.188 5.322-2.491 10.349-6.398 13.967s-9.093 5.522-14.416 5.309c-1.131-.047-2.097-.159-2.746-.24zm265.497 3.725c37.172-29.798 58.491-74.184 58.491-121.776 0-86.019-69.981-156-156-156-36.033 0-71.186 12.579-98.981 35.418-27.406 22.52-46.48 53.944-53.709 88.484-2.263 10.812 4.667 21.41 15.479 23.673 10.814 2.267 21.411-4.667 23.673-15.479 11.168-53.363 58.918-92.096 113.538-92.096 63.962 0 116 52.038 116 116 0 35.39-15.858 68.4-43.509 90.566-8.619 6.909-10.004 19.496-3.096 28.114 3.951 4.929 9.757 7.491 15.618 7.491 4.387.001 8.806-1.437 12.496-4.395z" fill="#1428bf"/><path d="m492 275.995h-20c-11.046 0-20-8.954-20-20s8.954-20 20-20h20c11.046 0 20 8.954 20 20s-8.954 20-20 20zm-432-20c0-11.046-8.954-20-20-20h-20c-11.046 0-20 8.954-20 20s8.954 20 20 20h20c11.046 0 20-8.954 20-20zm325.833-173.779 10.442-17.058c5.767-9.421 2.805-21.733-6.615-27.5-9.421-5.767-21.733-2.806-27.5 6.615l-10.442 17.058c-5.767 9.421-2.805 21.733 6.615 27.5 3.259 1.995 6.863 2.945 10.423 2.945 6.732 0 13.305-3.399 17.077-9.56zm3.827 393.116c9.42-5.767 12.382-18.079 6.615-27.5l-10.442-17.058c-5.767-9.42-18.08-12.382-27.5-6.615s-12.382 18.079-6.615 27.5l10.442 17.058c3.772 6.162 10.345 9.561 17.077 9.561 3.559-.001 7.165-.951 10.423-2.946zm-231.672-389.071c9.565-5.523 12.842-17.755 7.319-27.321l-10.001-17.32c-5.523-9.566-17.757-12.843-27.321-7.319-9.565 5.523-12.842 17.755-7.319 27.321l10.001 17.32c3.705 6.416 10.427 10.002 17.338 10.002 3.394 0 6.833-.864 9.983-2.683zm320.951 295.34c5.42-9.625 2.011-21.82-7.613-27.24l-17.427-9.813c-9.625-5.42-21.82-2.011-27.24 7.613-5.42 9.625-2.011 21.82 7.613 27.24l17.427 9.813c3.102 1.747 6.472 2.577 9.795 2.577 6.988 0 13.773-3.667 17.445-10.19zm-393.849-221.78c5.419-9.625 2.01-21.821-7.614-27.24l-17.427-9.813c-9.626-5.418-21.82-2.01-27.24 7.614-5.419 9.625-2.01 21.821 7.614 27.24l17.427 9.813c3.103 1.747 6.471 2.576 9.794 2.576 6.988.001 13.773-3.667 17.446-10.19zm369.181 8.451 17.468-9.739c9.647-5.379 13.108-17.56 7.729-27.208-5.378-9.647-17.559-13.109-27.208-7.729l-17.468 9.739c-9.647 5.379-13.108 17.56-7.729 27.208 3.66 6.564 10.469 10.264 17.486 10.264 3.297.001 6.639-.815 9.722-2.535zm-181.271-128.268v-19.999c0-11.046-8.954-20-20-20s-20 8.954-20 20v19.999c0 11.046 8.954 20 20 20s20-8.954 20-20z" fill="#df5cf0"/></g></svg>