<svg id="Layer_1" enable-background="new 0 0 512 512" height="512" viewBox="0 0 512 512" width="512" xmlns="http://www.w3.org/2000/svg"><g><path d="m82 392.042v-154.083c0-55.206 44.644-99.959 99.716-99.959h-60.716c-55.229 0-100 44.771-100 100v154c0 55.228 44.771 100 100 100h60.716c-55.072 0-99.716-44.753-99.716-99.958z" fill="#cee1f2"/><path d="m392 512h-272.02c-66.158 0-119.98-53.822-119.98-119.979v-154.021c0-66.168 53.832-120 120-120h272c66.168 0 120 53.832 120 120v154c0 66.169-53.832 120-120 120zm-272-354c-44.112 0-80 35.888-80 80v154.021c0 44.1 35.879 79.979 79.98 79.979h272.02c44.112 0 80-35.888 80-80v-154c0-44.112-35.888-80-80-80zm182 274h-160c-33.084 0-60-26.916-60-60v-114c0-33.084 26.916-60 60-60h160c33.084 0 60 26.916 60 60v114c0 33.084-26.916 60-60 60zm-160-194c-11.028 0-20 8.972-20 20v114c0 11.028 8.972 20 20 20h160c11.028 0 20-8.972 20-20v-114c0-11.028-8.972-20-20-20z" fill="#1428bf"/><path d="m417 270c-13.807 0-25-11.193-25-25s11.193-25 25-25 25 11.193 25 25-11.193 25-25 25m0 80c13.807 0 25-11.193 25-25s-11.193-25-25-25-25 11.193-25 25 11.193 25 25 25m-118.297-269.59c.035-.035.07-.071.105-.106l45.461-46.289c7.739-7.881 7.625-20.543-.256-28.283-7.88-7.741-20.544-7.625-28.283.255l-45.398 46.226c-3.744 3.733-8.707 5.788-13.98 5.788-5.293 0-10.272-2.071-14.024-5.834l-46.167-46.29c-7.801-7.821-20.464-7.837-28.284-.038-7.821 7.8-7.838 20.463-.038 28.284l46.163 46.286c11.309 11.344 26.349 17.591 42.35 17.591 16.001 0 31.043-6.247 42.351-17.59z" fill="#df5cf0"/></g></svg>