<svg id="Layer_1" enable-background="new 0 0 513 513" height="512" viewBox="0 0 513 513" width="512" xmlns="http://www.w3.org/2000/svg"><g><path d="m179.716 492.5h-60.716c-55.229 0-100-44.772-100-100v-272c0-55.229 44.771-100 100-100h60.716c-55.072 0-99.716 44.753-99.716 99.959v272.083c0 55.205 44.644 99.958 99.716 99.958zm155.046-279.238-13.238-12.238-90.954 91.476c-17.403 17.403-29.264 39.569-34.088 63.703l-10.482 56.297 55.82-10.958c1.911-.382 3.805-.824 5.691-1.294l14.972-81.567c4.824-24.135 15.685-48.3 33.088-65.704z" fill="#cee1f2"/><path d="m186 432.5c-5.22 0-10.292-2.045-14.073-5.79-4.709-4.663-6.802-11.356-5.589-17.872l10.481-56.297c.016-.087.033-.173.05-.26 5.617-28.1 19.297-53.663 39.56-73.925l90.912-91.436c13.828-13.827 32.16-21.42 51.659-21.42s37.831 7.593 51.619 21.381c13.787 13.788 21.381 32.12 21.381 51.619s-7.594 37.831-21.382 51.619l-90.912 91.436c-20.303 20.303-45.865 33.982-73.966 39.599l-55.888 10.972c-1.281.251-2.572.374-3.852.374zm30.118-72.499-5.064 27.199 26.914-5.284c20.262-4.05 38.755-13.946 53.413-28.605l90.913-91.436c6.273-6.273 9.706-14.561 9.706-23.375s-3.433-17.102-9.665-23.334h-.001c-6.232-6.233-14.52-9.666-23.334-9.666s-17.102 3.433-23.334 9.666l-90.913 91.436c-14.67 14.669-24.556 33.118-28.635 53.399zm176.882 152.499h-273c-66.168 0-120-53.832-120-120v-272c0-66.168 53.832-120 120-120h273c66.168 0 120 53.832 120 120v272c0 66.168-53.832 120-120 120zm-273-472c-44.112 0-80 35.888-80 80v272c0 44.112 35.888 80 80 80h273c44.112 0 80-35.888 80-80v-272c0-44.112-35.888-80-80-80z" fill="#1428bf"/><path d="m134 204.5h-34c-11.046 0-20-8.954-20-20s8.954-20 20-20h34c16.542 0 30-13.458 30-30v-34c0-11.046 8.954-20 20-20s20 8.954 20 20v34c0 38.598-31.402 70-70 70z" fill="#df5cf0"/></g></svg>