<svg id="Layer_1" enable-background="new 0 0 512 512" height="512" viewBox="0 0 512 512" width="512" xmlns="http://www.w3.org/2000/svg"><g><path d="m79 392v-108.751c0-21.902 7.058-42.303 19-58.965v-38.82c-45.144 9.649-79 49.76-79 97.784v108.752c0 55.229 44.771 100 100 100l52.058-.313c-51.515-4.049-92.058-47.132-92.058-99.687z" fill="#cee1f2"/><path d="m392 512h-272c-66.168 0-120-53.832-120-120v-120c0-26.708 10.181-51.776 28.667-70.587 13.892-14.136 31.304-23.539 50.333-27.412v-54.001c0-66.168 53.832-120 120-120h193c66.168 0 120 53.832 120 120v272c0 66.168-53.832 120-120 120zm-313-296.591c-22.956 8.16-39 30.119-39 56.591v120c0 44.112 35.888 80 80 80h272c44.112 0 80-35.888 80-80v-272c0-44.112-35.888-80-80-80h-193c-44.112 0-80 35.888-80 80v276c0 11.046-8.954 20-20 20s-20-8.954-20-20zm353-86.409c0-11.046-8.954-20-20-20h-233c-11.046 0-20 8.954-20 20s8.954 20 20 20h233c11.046 0 20-8.954 20-20zm1 187c0-11.046-8.954-20-20-20h-78c-11.046 0-20 8.954-20 20s8.954 20 20 20h78c11.046 0 20-8.954 20-20zm-157 0c0-11.046-8.954-20-20-20h-77c-11.046 0-20 8.954-20 20s8.954 20 20 20h77c11.046 0 20-8.954 20-20zm0 80c0-11.046-8.954-20-20-20h-77c-11.046 0-20 8.954-20 20s8.954 20 20 20h77c11.046 0 20-8.954 20-20zm116 0c0-11.046-8.954-20-20-20h-37c-11.046 0-20 8.954-20 20s8.954 20 20 20h37c11.046 0 20-8.954 20-20z" fill="#1428bf"/><path d="m413 256h-145c-11.046 0-20-8.954-20-20s8.954-20 20-20h145c11.046 0 20 8.954 20 20s-8.954 20-20 20zm-254-22c0 13.807 11.193 25 25 25s25-11.193 25-25-11.193-25-25-25-25 11.193-25 25z" fill="#df5cf0"/></g></svg>