<svg id="Layer_1" enable-background="new 0 0 512.051 512.051" height="512" viewBox="0 0 512.051 512.051" width="512" xmlns="http://www.w3.org/2000/svg"><g><path d="m80.026 279.051c0-24.503 13.776-45.78 34-56.535-8.949-4.759-19.157-7.465-30-7.465-35.346 0-64 28.654-64 64s28.654 64 64 64c10.843 0 21.051-2.706 30-7.465-20.224-10.754-34-32.031-34-56.535z" fill="#cee1f2"/><path d="m317.46 26.039c-10.501-8.89-24.299-12.688-37.854-10.418-5.553.929-11.269 1.424-16.58 1.431-18.444 0-36.896-4.193-43.272-8.092-18.847-11.524-41.599-11.954-60.866-1.153-19.267 10.802-30.77 30.438-30.77 52.526v147.246c-12.824-7.94-27.932-12.527-44.092-12.527-46.317 0-84 37.682-84 84s37.683 84 84 84c45.581 0 82.828-36.493 84-81.797v-220.922c0-10.689 7.316-15.894 10.423-17.636 3.107-1.741 11.315-5.19 20.436.387 15.789 9.656 43.633 13.968 64.142 13.968 7.469-.01 15.502-.694 23.182-1.979 2.653-.441 4.523.748 5.408 1.497.9.762 2.41 2.451 2.41 5.198v50.332c0 2.996-1.936 5.652-4.708 6.461-7.716 2.251-17.403 3.491-27.28 3.491h-.01c-14.487-.001-31.177-5.8-31.343-5.859-10.4-3.671-21.813 1.769-25.507 12.167-3.695 10.409 1.746 21.844 12.155 25.54 2.35.834 23.566 8.151 44.69 8.153h.014c13.759 0 27.067-1.761 38.484-5.092 19.727-5.755 33.504-24.203 33.504-44.86v-50.334c0-13.793-6.038-26.815-16.566-35.728zm-233.434 297.012c-24.262 0-44-19.738-44-44s19.738-44 44-44 44 19.738 44 44-19.739 44-44 44z" fill="#1428bf"/><path d="m495.46 195.039c-10.501-8.89-24.297-12.686-37.854-10.418-5.553.929-11.295 1.424-16.606 1.431h-.16c-18.444 0-36.71-4.193-43.086-8.092-18.847-11.524-41.598-11.954-60.866-1.153-19.267 10.802-30.77 30.438-30.77 52.526v127.246c-12.824-7.94-27.932-12.527-44.092-12.527-46.317 0-84 37.682-84 84s37.683 84 84 84c45.581 0 82.799-36.493 83.971-81.797.079-.724.12-200.922.12-200.922 0-10.689 7.225-15.894 10.331-17.636 3.107-1.741 11.315-5.19 20.436.387 15.789 9.656 43.467 13.968 63.976 13.968h.192c7.469-.01 15.476-.694 23.155-1.979 2.652-.44 4.524.748 5.408 1.497.9.762 2.41 2.451 2.41 5.198v50.332c0 2.996-1.936 5.652-4.708 6.461-7.716 2.251-17.403 3.491-27.28 3.491h-.01c-14.487-.001-31.177-5.8-31.343-5.859-10.399-3.673-21.813 1.768-25.507 12.167-3.695 10.409 1.746 21.844 12.155 25.54 2.35.834 23.566 8.151 44.69 8.153h.014c13.759 0 27.067-1.761 38.484-5.092 19.727-5.755 33.504-24.203 33.504-44.86v-50.332c.002-13.795-6.036-26.817-16.564-35.73zm-233.434 277.012c-24.262 0-44-19.738-44-44s19.738-44 44-44 44 19.738 44 44-19.739 44-44 44z" fill="#df5cf0"/></g></svg>