<svg id="Layer_1" enable-background="new 0 0 512 512" height="512" viewBox="0 0 512 512" width="512" xmlns="http://www.w3.org/2000/svg"><g><path d="m385 492h-60c-33.137 0-60-26.863-60-60v-173.978c0-33.137 26.863-60 60-60h60c-33.137 0-60 26.863-60 60v173.978c0 33.137 26.863 60 60 60zm-303.237-100v-272c0-55.229 44.771-100 100-100h-61.763c-55.228 0-100 44.772-100 100v272c0 55.228 44.772 100 100 100h61.763c-55.229 0-100-44.771-100-100z" fill="#cee1f2"/><path d="m432 178.022h-107c-44.112 0-80 35.888-80 80v173.978c0 44.112 35.888 80 80 80h107c44.112 0 80-35.888 80-80v-173.978c0-44.112-35.888-80-80-80zm40 253.978c0 22.056-17.944 40-40 40h-107c-22.056 0-40-17.944-40-40v-173.978c0-22.056 17.944-40 40-40h107c22.056 0 40 17.944 40 40zm-290-330h258c23.834 0 46.92 8.527 65.007 24.01 8.391 7.184 9.369 19.809 2.187 28.2s-19.808 9.372-28.2 2.187c-10.845-9.284-24.693-14.397-38.994-14.397h-258c-33.084 0-60 26.916-60 60v201c0 11.046-8.954 20-20 20s-20-8.954-20-20v-201c0-55.14 44.859-100 100-100zm40 390c0 11.046-8.954 20-20 20h-82c-66.168 0-120-53.831-120-120v-272c0-66.168 53.832-120 120-120h95c33.887 0 66.355 14.432 89.08 39.595 7.403 8.198 6.76 20.845-1.438 28.248-8.197 7.401-20.845 6.759-28.247-1.438-15.155-16.781-36.803-26.405-59.395-26.405h-95c-44.112 0-80 35.888-80 80v272c0 44.112 35.888 80 80 80h82c11.046 0 20 8.954 20 20z" fill="#1428bf"/><path d="m432 327h-18c-28.109 0-50.978-22.869-50.978-50.978v-17.022c0-11.046 8.954-20 20-20s20 8.954 20 20v17.022c0 6.053 4.925 10.978 10.978 10.978h18c11.046 0 20 8.954 20 20s-8.954 20-20 20z" fill="#df5cf0"/></g></svg>