<svg id="Layer_1" enable-background="new 0 0 512 512" height="512" viewBox="0 0 512 512" width="512" xmlns="http://www.w3.org/2000/svg"><g><path d="m80 256c0-120.176 89.826-219.372 206-234.11-9.824-1.247-19.837-1.89-30-1.89-130.339 0-236 105.661-236 236s105.661 236 236 236c10.163 0 20.176-.643 30-1.89-116.174-14.738-206-113.934-206-234.11z" fill="#cee1f2"/><path d="m437.02 74.98c-48.353-48.351-112.64-74.98-181.02-74.98s-132.667 26.629-181.02 74.98c-48.351 48.353-74.98 112.64-74.98 181.02s26.629 132.667 74.98 181.02c48.353 48.351 112.64 74.98 181.02 74.98s132.667-26.629 181.02-74.98c48.351-48.353 74.98-112.64 74.98-181.02s-26.629-132.667-74.98-181.02zm-181.02 397.02c-119.103 0-216-96.897-216-216s96.897-216 216-216 216 96.897 216 216-96.897 216-216 216zm24-216c0 13.807-11.193 25-25 25s-25-11.193-25-25 11.193-25 25-25 25 11.193 25 25zm-11.758 59.78c7.811 7.811 7.811 20.474 0 28.284-18.903 18.904-42.751 31.665-68.966 36.905-.088.018-.176.034-.264.051l-51.356 9.547c-1.217.226-2.441.337-3.656.337-5.255 0-10.356-2.073-14.142-5.858-4.661-4.661-6.726-11.318-5.521-17.798l9.547-51.355c.017-.089.034-.177.051-.265 5.295-26.489 18.401-51.268 36.904-69.771 7.811-7.811 20.474-7.811 28.284 0s7.811 20.474 0 28.284c-12.951 12.951-22.16 30.42-25.939 49.202l-4.196 22.572 22.573-4.196c18.395-3.702 35.126-12.669 48.396-25.939 7.811-7.81 20.474-7.81 28.285 0z" fill="#1428bf"/><path d="m330 270c-5.142 0-10.283-1.971-14.192-5.908-7.783-7.838-7.738-20.501.1-28.284 12.158-12.072 20.533-28.08 24.224-46.3l3.848-20.552-20.887 3.856c-16.75 3.352-32.652 12.125-46 25.379-7.838 7.783-20.501 7.739-28.284-.1-7.783-7.838-7.738-20.501.1-28.284 18.982-18.849 41.986-31.385 66.523-36.255.087-.018.175-.034.262-.05l49.676-9.17c6.482-1.196 13.136.876 17.791 5.543 4.654 4.667 6.711 11.326 5.498 17.805l-9.235 49.326c-.017.089-.034.177-.051.266-5.249 26.073-17.448 49.213-35.279 66.919-3.903 3.874-8.999 5.809-14.094 5.809z" fill="#df5cf0"/></g></svg>