<svg id="Layer_1" enable-background="new 0 0 512 512" height="512" viewBox="0 0 512 512" width="512" xmlns="http://www.w3.org/2000/svg"><g><path d="m80 120v272c0 52.555 40.543 95.638 92.058 99.687l-52.058.313c-55.229 0-100-44.771-100-100v-272c0-55.229 44.771-100 100-100l47.225-.174c-49.196 6.407-87.225 49.274-87.225 100.174zm307.755 289.447v-16.81h-9.888c-19.757 0-36.777-17.56-33.867-37.101l10-61.785c3.287-23.452 15.153-44.605 34.886-57.697 6.267-4.158 13.298-7.475 20.732-9.85.137-.396.251-.777.382-1.17-8.408-2.621-17.32-4.035-26.247-4.035-17.05 0-34.063 5.113-47.562 14.069-19.733 13.092-32.671 34.245-35.958 57.697l-7.7 49.643c-15.082 3.46-26.335 16.953-26.335 33.085 0 18.752 15.202 33.954 33.954 33.954z" fill="#cee1f2"/><path d="m272 512h-152c-66.168 0-120-53.832-120-120v-272c0-66.168 53.832-120 120-120h272c66.168 0 120 53.832 120 120v59c0 11.046-8.954 20-20 20s-20-8.954-20-20v-59c0-44.112-35.888-80-80-80h-272c-44.112 0-80 35.888-80 80v272c0 44.112 35.888 80 80 80h152c11.046 0 20 8.954 20 20s-8.954 20-20 20zm150-374c0-11.046-8.954-20-20-20h-207c-11.046 0-20 8.954-20 20s8.954 20 20 20h207c11.046 0 20-8.954 20-20zm-185 118c0-11.046-8.954-20-20-20h-22c-11.046 0-20 8.954-20 20s8.954 20 20 20h22c11.046 0 20-8.954 20-20zm275 119.494c0-20.51-11.691-38.875-29.239-47.958l-5.902-37.712c-4.156-29.307-20.436-55.332-44.686-71.42-16.915-11.223-37.733-17.404-58.618-17.404s-41.703 6.181-58.619 17.403c-24.251 16.091-40.532 42.12-44.685 71.431l-5.915 38.135c-17.193 9.193-28.336 27.167-28.336 47.525 0 30.054 24.204 54.506 53.954 54.506h168.092c29.75 0 53.954-24.452 53.954-54.506zm-101.94-123.76c14.763 9.794 24.68 25.762 27.209 43.808.015.106.03.211.047.317l7.74 49.45c1.294 8.265 7.595 14.851 15.793 16.51 6.462 1.308 11.151 7.059 11.151 13.675 0 7.863-6.391 14.506-13.954 14.506h-168.092c-7.563 0-13.954-6.643-13.954-14.506 0-6.439 4.545-12.155 10.807-13.591 7.979-1.831 14.037-8.338 15.292-16.428l7.7-49.643c.015-.096.029-.193.043-.29 2.529-18.046 12.446-34.013 27.208-43.808 10.282-6.821 23.588-10.734 36.505-10.734s26.222 3.913 36.505 10.734zm-4.06 84.266c0-11.046-8.954-20-20-20h-27c-11.046 0-20 8.954-20 20s8.954 20 20 20h27c11.046 0 20-8.954 20-20z" fill="#1428bf"/><path d="m375.033 512c-25.483 0-46.919-18.766-49.861-43.652-1.297-10.969 6.544-20.913 17.513-22.21 10.972-1.298 20.914 6.544 22.21 17.514.563 4.759 4.922 8.348 10.139 8.348 5.218 0 9.576-3.588 10.138-8.347 1.297-10.969 11.259-18.812 22.209-17.515 10.97 1.296 18.812 11.239 17.516 22.209-2.943 24.886-24.378 43.653-49.864 43.653zm-260.033-398c-13.807 0-25 11.193-25 25 0 13.807 11.193 25 25 25s25-11.193 25-25c0-13.807-11.193-25-25-25zm0 117c-13.807 0-25 11.193-25 25 0 13.807 11.193 25 25 25s25-11.193 25-25c0-13.807-11.193-25-25-25zm0 118c-13.807 0-25 11.193-25 25 0 13.807 11.193 25 25 25s25-11.193 25-25c0-13.807-11.193-25-25-25z" fill="#df5cf0"/></g></svg>