<svg id="Layer_1" enable-background="new 0 0 512.011 512.011" height="512" viewBox="0 0 512.011 512.011" width="512" xmlns="http://www.w3.org/2000/svg"><g><path d="m221.005 303.005v-125c0-41.983 27.235-77.601 65-90.161-9.431-3.136-19.516-4.839-30-4.839-52.467 0-95 42.533-95 95v125c0 52.467 42.533 95 95 95 10.484 0 20.569-1.703 30-4.839-37.764-12.56-65-48.178-65-90.161z" fill="#cee1f2"/><path d="m256.005 63.005c-63.411 0-115 51.589-115 115v125c0 56.591 41.089 103.766 95 113.259v40.774c-21.609 2.097-43.191 7.594-64.657 16.491-10.204 4.229-15.048 15.929-10.819 26.133s15.928 15.048 26.133 10.819c46.663-19.34 92.027-19.339 138.685 0 2.504 1.038 5.098 1.53 7.65 1.53 7.846 0 15.292-4.648 18.483-12.347 4.229-10.204-.614-21.905-10.817-26.134-21.466-8.898-43.048-14.395-64.658-16.492v-40.773c53.911-9.493 95-56.667 95-113.259v-125c0-63.412-51.588-115.001-115-115.001zm75 240c0 41.355-33.645 75-75 75s-75-33.645-75-75v-125c0-41.355 33.645-75 75-75s75 33.645 75 75zm120-124.765c0 11.046-8.954 20-20 20s-20-8.954-20-20c0-59.609-34.835-114.625-88.746-140.16-9.983-4.729-14.242-16.654-9.514-26.636 4.729-9.982 16.654-14.242 26.636-9.514 32.9 15.583 60.75 40.015 80.54 70.655 20.336 31.485 31.084 68.02 31.084 105.655zm-350 0c0 11.046-8.954 20-20 20s-20-8.954-20-20c0-37.635 10.749-74.17 31.084-105.655 19.79-30.64 47.64-55.072 80.54-70.655 9.981-4.728 21.908-.469 26.636 9.514 4.728 9.982.469 21.908-9.514 26.636-53.911 25.535-88.746 80.552-88.746 140.16z" fill="#1428bf"/><path d="m281.005 296.005h-50c-11.046 0-20-8.954-20-20s8.954-20 20-20h50c11.046 0 20 8.954 20 20s-8.954 20-20 20zm-242.497-206.888c8.35-20.348 19.522-39.421 33.207-56.691 6.86-8.657 5.403-21.236-3.254-28.096-8.656-6.86-21.236-5.403-28.096 3.254-16.014 20.209-29.089 42.531-38.862 66.347-4.193 10.219.691 21.902 10.91 26.095 2.485 1.02 5.056 1.503 7.585 1.503 7.872 0 15.337-4.678 18.51-12.412zm461.09 10.91c10.219-4.193 15.103-15.876 10.91-26.095-9.773-23.816-22.848-46.139-38.861-66.347-6.86-8.658-19.439-10.115-28.096-3.254-8.657 6.86-10.114 19.439-3.254 28.096 13.684 17.27 24.856 36.343 33.207 56.691 3.174 7.734 10.637 12.413 18.51 12.413 2.528-.002 5.1-.485 7.584-1.504z" fill="#df5cf0"/></g></svg>