<svg id="Layer_1" enable-background="new 0 0 512 512" height="512" viewBox="0 0 512 512" width="512" xmlns="http://www.w3.org/2000/svg"><g><path d="m296 452v-.903c0-1.223.081-2.431.199-3.63-6.175-5.578-13.511-9.895-21.609-12.531-2.354-13.671-7.623-26.69-15.573-38.306-11.057-16.154-26.541-28.478-44.782-35.642-10.694-4.198-20.678-10.015-29.675-17.287-13.858-11.202-30.294-18.334-47.806-20.792 6.928-16.188 9.294-33.809 6.844-51.312-.729-5.208-1.098-10.539-1.098-15.847 0-5.53.402-11.087 1.195-16.51 2.562-17.498.309-35.128-6.515-51.369 17.131-2.303 33.738-9.211 48.005-20.577 8.82-7.027 18.58-12.669 29.006-16.768 18.219-7.161 33.693-19.462 44.754-35.571 7.887-11.487 13.145-24.349 15.55-37.86 8.158-2.641 15.546-6.985 21.756-12.607-.149-1.348-.251-2.707-.251-4.086v-.402c0-22.091-17.909-40-40-40s-40 17.909-40 40c0 15.359-9.465 29.068-23.759 34.687-16.14 6.345-31.094 15.046-44.442 25.679-11.986 9.549-28.499 11.035-41.824 3.467l-1.147-.651c-19.27-10.857-43.727-4.099-54.626 15.097-10.9 19.195-4.115 43.558 15.155 54.416l.322.183c13.328 7.57 20.869 22.508 18.649 37.674-1.204 8.226-1.828 16.639-1.828 25.199 0 8.2.572 16.266 1.677 24.161 2.1 15.002-5.338 29.738-18.511 37.219l-.309.175c-19.27 10.858-26.055 35.221-15.155 54.417 10.9 19.195 35.356 25.955 54.626 15.097l.057-.033c13.38-7.599 29.99-6.096 41.956 3.577 13.606 10.999 28.912 19.976 45.464 26.476 14.272 5.604 23.695 19.327 23.695 34.66v.5c0 22.091 17.909 40 40 40s40-17.909 40-40z" fill="#cee1f2"/><path d="m256 512c-33.084 0-60-26.916-60-60v-.501c0-7.121-4.319-13.419-11.004-16.044-18.308-7.188-35.374-17.126-50.728-29.538-5.656-4.572-13.313-5.257-19.506-1.74-.02.011-.097.055-.117.066-28.813 16.237-65.526 6.077-81.835-22.646-7.908-13.926-9.907-30.092-5.628-45.518 4.288-15.456 14.358-28.311 28.356-36.199l.249-.141c6.078-3.452 9.526-10.306 8.582-17.057-1.241-8.869-1.87-17.93-1.87-26.933 0-9.393.686-18.845 2.039-28.093 1.004-6.863-2.507-13.85-8.737-17.388l-.327-.186c-13.934-7.851-24.004-20.706-28.292-36.162-4.279-15.426-2.28-31.591 5.628-45.518 16.31-28.724 53.023-38.88 81.835-22.646l1.203.683c6.148 3.492 13.796 2.818 19.487-1.716 15.058-11.996 31.741-21.635 49.587-28.65 6.73-2.645 11.078-8.954 11.078-16.073 0-33.084 26.916-60 60-60s60 26.916 60 60v.402c0 7.08 4.314 13.376 10.992 16.041 17.651 7.043 34.15 16.658 49.038 28.577 5.703 4.566 13.362 5.259 19.512 1.767l1.753-.996c28.874-16.268 65.585-6.11 81.895 22.613 7.908 13.926 9.907 30.091 5.628 45.517-4.288 15.456-14.358 28.311-28.357 36.198l-1.371.779c-6.108 3.469-9.559 10.322-8.584 17.053 1.324 9.153 1.995 18.505 1.995 27.799 0 8.826-.604 17.709-1.794 26.405-.927 6.763 2.521 13.617 8.577 17.057l1.208.686c13.982 7.889 24.041 20.737 28.326 36.181 4.279 15.426 2.28 31.592-5.628 45.519-16.309 28.722-53.021 38.882-81.835 22.646l-.697-.395c-6.212-3.528-13.911-2.811-19.621 1.823-15.171 12.312-32.032 22.208-50.115 29.415-6.635 2.643-10.922 8.928-10.922 16.01v.903c0 33.084-26.916 60-60 60zm-132.771-150.101c12.842 0 25.61 4.362 36.185 12.91 12.175 9.842 25.7 17.719 40.202 23.414 22.103 8.678 36.384 29.59 36.384 53.276v.501c0 11.028 8.972 20 20 20s20-8.972 20-20v-.903c0-23.556 14.175-44.426 36.112-53.169 14.325-5.709 27.688-13.554 39.718-23.316 18.592-15.09 43.938-17.269 64.574-5.55l.638.362c9.613 5.415 21.91 2.03 27.364-7.578 2.62-4.615 3.283-9.968 1.866-15.074-1.424-5.135-4.779-9.412-9.447-12.042-.021-.011-.04-.022-.061-.034l-1.235-.702c-20.459-11.619-31.628-34.098-28.453-57.267.944-6.902 1.424-13.96 1.424-20.977 0-7.384-.532-14.809-1.583-22.07-3.313-22.894 8.106-46.027 28.418-57.563l1.431-.812c4.728-2.664 8.083-6.94 9.508-12.076 1.416-5.106.753-10.459-1.867-15.073-5.455-9.608-17.755-12.991-27.417-7.549l-1.694.963c-20.478 11.628-45.7 9.538-64.264-5.323-11.805-9.451-24.88-17.072-38.863-22.652-21.972-8.767-36.169-29.647-36.169-53.193v-.402c0-11.028-8.972-20-20-20s-20 8.972-20 20c0 23.676-14.305 44.598-36.442 53.3-14.137 5.557-27.357 13.198-39.297 22.709-18.542 14.773-43.727 16.82-64.162 5.215l-1.144-.649c-9.608-5.413-21.905-2.028-27.361 7.579-2.62 4.615-3.283 9.968-1.867 15.074 1.425 5.135 4.78 9.412 9.448 12.042l.387.219c20.451 11.615 31.93 34.908 28.556 57.958-1.073 7.336-1.617 14.84-1.617 22.302 0 7.155.499 14.352 1.484 21.39 3.246 23.201-7.917 45.725-28.441 57.381l-.308.174c-4.728 2.665-8.083 6.941-9.508 12.077-1.417 5.106-.754 10.459 1.866 15.073 5.454 9.606 17.752 12.992 27.417 7.549 8.843-5.021 18.551-7.494 28.218-7.494z" fill="#1428bf"/><path d="m256 361c-57.897 0-105-47.103-105-105s47.103-105 105-105 105 47.103 105 105-47.103 105-105 105zm0-170c-35.841 0-65 29.159-65 65s29.159 65 65 65 65-29.159 65-65-29.159-65-65-65z" fill="#ff5cf4"/></g></svg>