<svg id="Layer_1" enable-background="new 0 0 512 512" height="512" viewBox="0 0 512 512" width="512" xmlns="http://www.w3.org/2000/svg"><g><path d="m83 258.318c-1.155-120.339 88.397-220.859 204.465-236.264-10.279-1.348-20.779-2.054-31.465-2.054-130.642 0-237.245 107.445-235.989 238.318l-.011 233.682 3.912-3.912c16.314-16.314 37.389-26.689 59.079-30.513z" fill="#cee1f2"/><path d="m19.996 512c-2.577 0-5.175-.498-7.65-1.523-7.473-3.096-12.346-10.389-12.346-18.478l.011-233.584c-.631-68.597 25.749-133.366 74.29-182.375 48.567-49.035 113.096-76.04 181.699-76.04 69.114 0 133.742 26.821 181.978 75.523 48.39 48.856 74.674 113.843 74.01 182.987-.654 68.094-27.731 131.891-76.244 179.639-48.389 47.626-112.554 73.851-180.684 73.851-.081 0-.165 0-.247 0-40.301.001-78.775-9.038-114.35-26.866-33.993-17.037-75.148-10.166-102.41 17.096l-3.912 3.912c-3.824 3.826-8.941 5.858-14.145 5.858zm81.271-76.149c19.422 0 38.961 4.422 57.119 13.522 29.959 15.014 62.409 22.627 96.447 22.627.065.001.143 0 .207 0 118.519.008 215.818-95.917 216.951-213.874.561-58.388-21.611-113.241-62.431-154.455-40.668-41.059-95.202-63.671-153.56-63.671-57.847 0-112.282 22.796-153.279 64.188-40.996 41.391-63.267 96.06-62.711 153.938 0 .064-.008 193.261-.008 193.261 18.952-10.248 40.036-15.536 61.265-15.536zm198.76-22.863 6.712-18c3.86-10.35-1.401-21.868-11.751-25.728-10.352-3.86-21.868 1.402-25.728 11.751l-1.86 4.988h-22.966l-1.486-4.401c-3.535-10.464-14.884-16.082-25.349-12.547s-16.083 14.884-12.547 25.349l6.081 18c2.746 8.128 10.369 13.599 18.948 13.599h51.207c8.35.001 15.822-5.187 18.739-13.011zm-9.663-63.988h-69.709c-4.166 0-8.228-1.301-11.618-3.721-3.31-2.361-81.037-58.722-81.037-135.944 0-34.454 13.459-66.033 37.897-88.919 23.699-22.193 55.698-34.416 90.103-34.416s66.404 12.223 90.103 34.416c24.438 22.886 37.897 54.465 37.897 88.919 0 77.301-78.768 133.656-82.121 136.018-3.37 2.373-7.392 3.647-11.515 3.647zm-62.891-40h56.119c15.004-12.025 60.408-52.334 60.408-99.665 0-47.509-37.831-83.335-88-83.335s-88 35.826-88 83.335c0 28.969 17.177 55.325 31.587 72.334 10.975 12.954 21.859 22.448 27.886 27.331z" fill="#1428bf"/><path d="m299.93 181.058c-2.061-1.532-20.93-15.058-44.93-15.058s-42.869 13.526-44.93 15.058c-8.866 6.588-10.711 19.117-4.123 27.982 3.925 5.282 9.957 8.072 16.068 8.072 4.146 0 8.331-1.286 11.914-3.949.004-.003.028-.02.07-.048v44.995c0 11.046 8.954 20 20 20s20-8.954 20-20v-46.216c1.291.74 2.045 1.25 2.07 1.268 3.583 2.664 7.768 3.949 11.914 3.949 6.111 0 12.143-2.79 16.068-8.072 6.59-8.864 4.745-21.393-4.121-27.981z" fill="#ff5cf0"/></g></svg>