<svg id="Layer_1" enable-background="new 0 0 512 512" height="512" viewBox="0 0 512 512" width="512" xmlns="http://www.w3.org/2000/svg"><g><path d="m144.5 392v-272c0-55.229 44.772-100 100-100h-60c-55.228 0-100 44.771-100 100v272c0 55.229 44.772 100 100 100h60c-55.228 0-100-44.772-100-100z" fill="#cee1f2"/><path d="m327.5 512h-143c-66.168 0-120-53.832-120-120v-272c0-66.168 53.832-120 120-120h143c66.168 0 120 53.832 120 120v272c0 66.168-53.832 120-120 120zm-143-472c-44.112 0-80 35.888-80 80v272c0 44.112 35.888 80 80 80h143c44.112 0 80-35.888 80-80v-272c0-44.112-35.888-80-80-80zm-15 255.923c-13.807 0-25 11.193-25 25s11.193 25 25 25 25-11.193 25-25-11.193-25-25-25zm87 0c-13.807 0-25 11.193-25 25s11.193 25 25 25 25-11.193 25-25-11.193-25-25-25zm86 0c-13.807 0-25 11.193-25 25s11.193 25 25 25 25-11.193 25-25-11.193-25-25-25zm-172 86c-13.807 0-25 11.193-25 25s11.193 25 25 25 25-11.193 25-25-11.193-25-25-25zm86 0c-13.807 0-25 11.193-25 25s11.193 25 25 25 25-11.193 25-25-11.193-25-25-25zm86 0c-13.807 0-25 11.193-25 25s11.193 25 25 25 25-11.193 25-25-11.193-25-25-25z" fill="#1428bf"/><path d="m194.491 155.176c-15.454 0-25.188-16.849-17.258-30.113 7.861-13.147 18.776-24.267 31.758-32.373 13.368-8.347 30.699 1.143 30.699 16.902 0 6.854-3.469 13.297-9.304 16.893-7.699 4.746-14.169 11.301-18.809 19.071-3.582 5.998-10.1 9.62-17.086 9.62zm86.079-28.694c7.699 4.746 14.169 11.301 18.809 19.071 3.582 5.997 10.1 9.619 17.086 9.619h.001c15.453 0 25.188-16.849 17.258-30.113-7.861-13.147-18.776-24.267-31.758-32.373-13.368-8.347-30.699 1.143-30.699 16.902-.001 6.854 3.468 13.297 9.303 16.894zm17.871 69.405c-4.525 7.061-10.591 13.043-17.72 17.469-5.874 3.647-9.449 10.066-9.449 16.981v.001c0 15.704 17.264 25.27 30.595 16.97 12.143-7.561 22.482-17.756 30.212-29.781 8.542-13.288-1.062-30.769-16.859-30.769-6.78 0-13.12 3.421-16.779 9.129zm-68.172 17.431c-7.129-4.426-13.195-10.408-17.72-17.469-3.658-5.708-9.999-9.13-16.779-9.13-15.797 0-25.402 17.481-16.859 30.769 7.73 12.025 18.07 22.22 30.212 29.781 13.331 8.301 30.595-1.266 30.595-16.97v-.001c0-6.914-3.575-13.333-9.449-16.98z" fill="#ff5cf4"/></g></svg>