<svg id="Layer_1" enable-background="new 0 0 512 512" height="512" viewBox="0 0 512 512" width="512" xmlns="http://www.w3.org/2000/svg"><g><path d="m286 490.11c-9.824 1.246-19.837 1.89-30 1.89-130.339 0-236-105.661-236-236 0-120.626 90.503-220.102 207.309-234.26 4.076 3.622 8.143 7.254 12.141 10.961-92.764 31.793-159.45 119.755-159.45 223.299 0 120.176 89.826 219.372 206 234.11zm92-392.95c0-32.315 17.515-60.523 43.592-75.574-5.37-1.037-10.915-1.586-16.592-1.586-48.137 0-87 39.023-87 87.16 0 29.131 35.257 79.595 60.938 112.194 13.283 16.862 38.842 16.862 52.125 0 2.522-3.202 5.139-6.581 7.804-10.091-25.675-32.602-60.867-82.999-60.867-112.103z" fill="#cee1f2"/><g fill="#1428bf"><path d="m405 252c16.399 0 31.625-7.388 41.773-20.27 43.282-54.942 65.227-96.854 65.227-124.57 0-59.088-48-107.16-107-107.16s-107 48.072-107 107.16c0 27.717 21.945 69.628 65.227 124.571 10.148 12.881 25.374 20.269 41.773 20.269zm0-212c36.944 0 67 30.128 67 67.16 0 13.491-14.882 46.798-56.648 99.818-3.443 4.37-7.963 5.022-10.352 5.022s-6.909-.652-10.352-5.022c-41.766-53.02-56.648-86.327-56.648-99.818 0-37.032 30.056-67.16 67-67.16z"/><path d="m237.973 80.913c-43.128 4.394-82.998 24.553-112.266 56.763-29.476 32.44-45.708 74.461-45.707 118.323-.001 46.909 18.335 91.079 51.628 124.373 33.294 33.293 77.464 51.629 124.373 51.628 73.751 0 140.366-46.247 165.763-115.077 3.823-10.363-1.478-21.863-11.841-25.687-10.363-3.823-21.863 1.477-25.687 11.84-19.624 53.188-71.158 88.924-128.235 88.924-36.226 0-70.351-14.174-96.089-39.913s-39.913-59.863-39.913-96.087c0-70.042 52.461-128.205 122.028-135.292 10.988-1.12 18.989-10.935 17.87-21.924-1.119-10.99-10.925-18.989-21.924-17.871z"/><circle cx="256" cy="256" r="25"/><path d="m484.949 319.246c-10.352-3.837-21.863 1.446-25.703 11.804-31.344 84.585-113.769 140.95-204.246 140.95-118.363-1.417-215.721-98.93-214.995-217.353.685-112.102 88.718-206.144 200.415-214.094 11.018-.784 19.313-10.352 18.529-21.37-.785-11.018-10.357-19.312-21.369-18.53-64.172 4.568-123.864 32.972-168.082 79.98-44.417 47.22-69.097 108.933-69.493 173.77-.417 68.218 25.585 132.513 73.218 181.042 47.64 48.539 113.777 76.555 181.777 76.555 107.14 0 204.608-66.81 241.754-167.051 3.838-10.357-1.447-21.864-11.805-25.703z"/></g><path d="m405 80c13.807 0 25 11.193 25 25s-11.193 25-25 25-25-11.193-25-25 11.193-25 25-25zm-58.246 208.95c3.838-10.357-1.447-21.865-11.804-25.704-10.359-3.837-21.865 1.447-25.704 11.804-8.062 21.755-29.957 36.95-53.245 36.95-14.909 0-28.958-5.838-39.56-16.44s-16.441-24.652-16.441-39.56c0-25.685 18.319-48.617 43.56-54.527 10.755-2.518 17.432-13.278 14.914-24.033s-13.281-17.433-24.033-14.914c-20.739 4.856-39.588 16.694-53.074 33.334-13.779 17-21.367 38.358-21.367 60.14 0 25.593 10 49.687 28.156 67.844 18.157 18.157 42.252 28.157 67.845 28.156 40.307 0 76.777-25.338 90.753-63.05z" fill="#de5cee"/></g></svg>