<svg id="Layer_1" enable-background="new 0 0 512 512" height="512" viewBox="0 0 512 512" width="512" xmlns="http://www.w3.org/2000/svg"><g><path d="m219.41 369.297c11.344 11.309 17.59 26.35 17.59 42.351s-6.247 31.041-17.59 42.35l-33.294 33.171c-3.903 3.888-9.01 5.831-14.116 5.831-5.131 0-10.261-1.962-14.168-5.884-7.796-7.825-7.772-20.488.053-28.284l33.289-33.166c3.756-3.744 5.827-8.724 5.827-14.018 0-5.263-2.047-10.216-5.766-13.958l-33.197-32.371c-7.908-7.712-8.068-20.374-.356-28.282 7.712-7.909 20.373-8.068 28.282-.356l33.289 32.461c.052.051.104.103.157.155zm-61.41 40.703c0-11.046-8.954-20-20-20h-18c-44.112 0-80-35.888-80-80v-47c0-11.046-8.954-20-20-20s-20 8.954-20 20v47c0 66.168 53.832 120 120 120h18c11.046 0 20-8.954 20-20zm195.963-261.319-33.197-32.371c-3.719-3.742-5.766-8.695-5.766-13.958 0-5.293 2.071-10.273 5.827-14.018l33.289-33.166c7.825-7.796 7.849-20.459.053-28.284-7.797-7.826-20.46-7.849-28.284-.053l-33.295 33.171c-11.343 11.309-17.59 26.349-17.59 42.35s6.247 31.042 17.59 42.351c.052.052.105.104.158.156l33.289 32.461c3.889 3.792 8.927 5.681 13.961 5.681 5.203 0 10.401-2.018 14.321-6.037 7.712-7.909 7.552-20.571-.356-28.283zm38.037-64.681h-18c-11.046 0-20 8.954-20 20s8.954 20 20 20h18c44.112 0 80 35.888 80 80v47c0 11.046 8.954 20 20 20s20-8.954 20-20v-47c0-66.168-53.832-120-120-120z" fill="#1428bf"/><path d="m194.68 35.681c-6.796-21.695-25.142-35.681-46.776-35.681-.066 0-.133 0-.2 0-21.738.086-40.081 14.253-46.732 36.091-.137.448-32.467 141.44-32.467 141.44-2.467 10.767 4.26 21.495 15.027 23.962 10.762 2.465 21.495-4.26 23.962-15.027l5.608-24.466h70.578l5.863 24.631c2.188 9.189 10.389 15.373 19.44 15.373 1.533 0 3.091-.178 4.648-.548 10.746-2.558 17.383-13.342 14.825-24.088.001.001-33.637-141.243-33.776-141.687zm-72.41 86.319 17.144-74.804c2.192-6.459 6.614-7.188 8.45-7.196 1.864.002 6.234.684 8.466 7.094l17.829 74.906zm297.358 324.174c-3.44 5.025-7.042 9.773-10.799 14.241 13.057 7.047 28.655 11.585 47.171 11.585 11.046 0 20 8.954 20 20s-8.954 20-20 20c-28.646 0-55.077-8.118-77.927-23.533-22.791 15.517-49.127 23.533-78.073 23.533-11.046 0-20-8.954-20-20s8.954-20 20-20c17.232 0 32.969-3.844 47.119-11.478-6.235-7.352-12.012-15.446-17.282-24.254-5.671-9.479-2.584-21.76 6.895-27.431 9.477-5.67 21.76-2.584 27.431 6.895 3.771 6.303 8.328 12.904 13.77 19.275 3.009-3.556 5.906-7.367 8.689-11.431 13.664-19.957 20.755-40.752 23.693-53.576h-116.315c-11.046 0-20-8.954-20-20s8.954-20 20-20h65v-20c0-11.046 8.954-20 20-20s20 8.954 20 20v20h63c11.046 0 20 8.954 20 20s-8.954 20-20 20h-10.995c-2.882 18.505-12.277 48.276-31.377 76.174z" fill="#df5cf0"/></g></svg>