<svg id="Layer_1" enable-background="new 0 0 512 512" height="512" viewBox="0 0 512 512" width="512" xmlns="http://www.w3.org/2000/svg"><g><path d="m146.5 392v-272c0-55.229 44.772-100 100-100h-60c-55.228 0-100 44.771-100 100v272c0 55.229 44.772 100 100 100h60c-55.228 0-100-44.771-100-100z" fill="#cee1f2"/><path d="m325.5 512h-139c-66.168 0-120-53.832-120-120v-272c0-66.168 53.832-120 120-120h139c66.168 0 120 53.832 120 120v272c0 66.168-53.832 120-120 120zm-139-472c-44.112 0-80 35.888-80 80v272c0 44.112 35.888 80 80 80h139c44.112 0 80-35.888 80-80v-272c0-44.112-35.888-80-80-80zm179 111c0-11.046-8.954-20-20-20h-179c-11.046 0-20 8.954-20 20s8.954 20 20 20h179c11.046 0 20-8.954 20-20zm-3 261v-95c0-11.046-8.954-20-20-20s-20 8.954-20 20v95c0 11.046 8.954 20 20 20s20-8.954 20-20zm-192-115c-13.807 0-25 11.193-25 25s11.193 25 25 25 25-11.193 25-25-11.193-25-25-25zm86 0c-13.807 0-25 11.193-25 25s11.193 25 25 25 25-11.193 25-25-11.193-25-25-25zm-86 85c-13.807 0-25 11.193-25 25s11.193 25 25 25 25-11.193 25-25-11.193-25-25-25zm86 0c-13.807 0-25 11.193-25 25s11.193 25 25 25 25-11.193 25-25-11.193-25-25-25z" fill="#1428bf"/><path d="m194.5 236c0 13.807-11.193 25-25 25s-25-11.193-25-25 11.193-25 25-25 25 11.193 25 25zm62-25c-13.807 0-25 11.193-25 25s11.193 25 25 25 25-11.193 25-25-11.193-25-25-25zm86 0c-13.807 0-25 11.193-25 25s11.193 25 25 25 25-11.193 25-25-11.193-25-25-25z" fill="#ff5cf4"/></g></svg>