<svg id="Layer_1" enable-background="new 0 0 512.136 512.136" height="512" viewBox="0 0 512.136 512.136" width="512" xmlns="http://www.w3.org/2000/svg"><g><path d="m104.351 403.371-23.928-196.831c-2.252-19.76 4.44-38.28 16.68-51.787l-11.105-13.685c-39.41 0-70.037 34.315-65.574 73.472l21.521 188.851c5.757 50.521 48.51 88.677 99.357 88.677h62.411l-.004-.02c-50.848 0-93.6-38.157-99.358-88.677z" fill="#cee1f2"/><path d="m370.835 512.068h-229.534c-61.057 0-112.313-45.748-119.228-106.413l-21.521-188.851c-2.771-24.32 4.987-48.741 21.285-67.002 16.299-18.261 39.684-28.734 64.16-28.734 11.046 0 20 8.954 20 20s-8.954 20-20 20c-13.284 0-25.472 5.458-34.317 15.369s-12.89 22.639-11.386 35.838l21.521 188.851c4.609 40.443 38.781 70.942 79.485 70.942h229.534c40.705 0 74.877-30.498 79.485-70.941l21.521-188.852c1.504-13.199-2.539-25.926-11.385-35.837-8.846-9.912-21.033-15.37-34.318-15.37-11.046 0-20-8.954-20-20s8.954-20 20-20c24.477 0 47.863 10.474 64.161 28.735s24.057 42.682 21.284 67.001l-21.521 188.851c-6.911 60.665-58.168 106.413-119.226 106.413zm-186.845-285v-114c0-40.252 32.748-73 73-73s73 32.748 73 73v8h-86c-11.046 0-20 8.954-20 20s8.954 20 20 20h106c11.046 0 20-8.954 20-20v-28c0-62.309-50.691-113-113-113s-113 50.691-113 113v114c0 11.046 8.954 20 20 20s20-8.954 20-20z" fill="#1428bf"/><path d="m343.202 233.356c-6.47-8.953-18.972-10.969-27.924-4.5l-1.602 1.157c-3.406 2.459-7.921 2.632-11.506.441-11.382-6.961-25.678-7.23-37.315-.708-11.637 6.523-18.865 18.864-18.865 32.204v55.544c-6.258-2.219-12.991-3.427-20-3.427-33.084 0-60 26.916-60 60s26.916 60 60 60 60-26.916 60-60v-106.947c16.505 7.854 36.045 6.199 51.107-4.681l1.604-1.159c8.955-6.469 10.97-18.971 4.501-27.924zm-117.212 160.712c-11.028 0-20-8.972-20-20s8.972-20 20-20 20 8.972 20 20-8.972 20-20 20z" fill="#df5cf0"/></g></svg>