<svg id="Layer_1" enable-background="new 0 0 512.001 512.001" height="512" viewBox="0 0 512.001 512.001" width="512" xmlns="http://www.w3.org/2000/svg"><g><path d="m83.001 258.318c-1.156-120.338 88.397-220.859 204.465-236.264-10.28-1.348-20.779-2.054-31.465-2.054-130.643 0-237.246 107.445-235.989 238.318l-.011 233.682 3.912-3.912c16.314-16.314 37.389-26.689 59.079-30.513z" fill="#cee1f2"/><path d="m399.001 185c11.046 0 20 8.954 20 20s-8.954 20-20 20h-6v26.132c0 83.04-67.723 150.72-150.964 150.868-50.372-.091-97.294-25.053-125.589-66.774-6.199-9.142-3.814-21.578 5.327-27.778 9.145-6.199 21.579-3.812 27.778 5.327 20.858 30.757 55.432 49.159 92.483 49.226 61.153-.109 110.964-49.845 110.964-110.868v-61.567c0-21.064-16.534-37.564-37.643-37.564-20.948 0-37.357 16.252-37.357 37 0 11.046-8.954 20-20 20s-20-8.954-20-20c0-20.751 7.999-40.14 22.523-54.597 14.516-14.449 33.989-22.405 54.835-22.405 20.854 0 40.396 8.073 55.024 22.733 13.511 13.539 21.398 31.245 22.488 50.267zm112.987 73.511c-.653 68.094-27.73 131.89-76.243 179.638-48.39 47.626-112.555 73.851-180.684 73.851h-.247c-40.3.001-78.774-9.038-114.35-26.866-33.992-17.035-75.147-10.167-102.409 17.097l-3.912 3.912c-3.826 3.825-8.942 5.857-14.146 5.858-2.577 0-5.175-.498-7.65-1.523-7.474-3.096-12.346-10.389-12.346-18.479l.012-233.596c-.629-68.591 25.75-133.356 74.288-182.363 48.568-49.035 113.096-76.04 181.7-76.04 69.114 0 133.742 26.821 181.978 75.522 48.389 48.857 74.673 113.843 74.009 182.989zm-102.43-154.84c-40.666-41.059-95.2-63.671-153.557-63.671-57.847 0-112.282 22.796-153.279 64.188-40.995 41.391-63.266 96.06-62.71 153.938.001.064.001.129.001.193l-.01 193.067c18.952-10.248 40.036-15.536 61.265-15.536 19.422 0 38.962 4.423 57.119 13.523 29.958 15.015 62.408 22.627 96.446 22.627h.207c118.52.009 215.817-95.917 216.95-213.874.561-58.388-21.611-113.241-62.432-154.455z" fill="#1428bf"/><path d="m186.001 293c-36.035 0-67.884-20.381-83.116-53.188-5.993-12.906-5.007-27.764 2.639-39.742 7.621-11.94 20.631-19.069 34.802-19.069h38.676c11.046 0 20 8.954 20 20s-8.954 20-20 20h-38.676c-.282 0-.708 0-1.083.588-.415.65-.188 1.142-.078 1.378 8.6 18.524 26.548 30.033 46.836 30.033 11.668 0 22.657-3.722 31.779-10.764 8.745-6.749 21.305-5.131 28.053 3.611 6.749 8.743 5.133 21.303-3.611 28.053-16.187 12.496-35.629 19.1-56.221 19.1z" fill="#de5cee"/></g></svg>