<svg id="Layer_1" enable-background="new 0 0 512 512" height="512" viewBox="0 0 512 512" width="512" xmlns="http://www.w3.org/2000/svg"><g><path d="m159.143 428.265c-36.845-3.607-66.455-31.912-71.646-68.567-3.996-28.218-7.497-64.208-7.497-103.698s3.501-75.48 7.497-103.698c5.191-36.655 34.801-64.961 71.646-68.567 32.712-3.202 76.725-6.461 126.857-7.44-9.78-.191-19.793-.295-30-.295-62.529 0-117.763 3.908-156.857 7.735-36.845 3.607-66.455 31.912-71.646 68.567-3.996 28.218-7.497 64.208-7.497 103.698s3.501 75.48 7.497 103.698c5.191 36.655 34.801 64.961 71.646 68.567 39.094 3.827 94.328 7.735 156.857 7.735 10.207 0 20.22-.104 30-.295-50.132-.979-94.145-4.238-126.857-7.44z" fill="#cee1f2"/><path d="m256 456c-65.145 0-122.316-4.258-158.806-7.83-46.194-4.521-82.997-39.75-89.5-85.668-5.105-36.055-7.694-71.887-7.694-106.502s2.589-70.447 7.694-106.503c6.503-45.917 43.306-81.145 89.5-85.667 36.49-3.572 93.661-7.83 158.806-7.83s122.316 4.258 158.806 7.83c46.194 4.521 82.997 39.75 89.5 85.668 5.105 36.055 7.694 71.887 7.694 106.502s-2.589 70.447-7.694 106.503c-6.503 45.917-43.306 81.146-89.5 85.667-36.49 3.572-93.661 7.83-158.806 7.83zm0-360c-63.53 0-119.306 4.154-154.909 7.641-27.766 2.718-49.885 23.881-53.791 51.465-4.844 34.204-7.3 68.149-7.3 100.894s2.456 66.69 7.3 100.894c3.906 27.585 26.025 48.748 53.791 51.466 35.603 3.486 91.379 7.64 154.909 7.64s119.306-4.154 154.909-7.641c27.766-2.718 49.885-23.881 53.791-51.465 4.844-34.204 7.3-68.149 7.3-100.894s-2.456-66.69-7.3-100.894c-3.906-27.585-26.025-48.748-53.791-51.466-35.603-3.486-91.379-7.64-154.909-7.64z" fill="#1428bf"/><path d="m230.057 350.796c-8.517 0-17.041-2.216-24.85-6.656-15.784-8.976-25.207-25.135-25.207-43.225v-90.33c0-18.09 9.423-34.249 25.207-43.225 15.908-9.048 34.796-8.862 50.519.492l75.914 45.165c15.254 9.075 24.36 25.05 24.36 42.732s-9.106 33.657-24.36 42.732l-75.914 45.165c-8.006 4.764-16.834 7.15-25.669 7.15zm.047-150.043c-2.333 0-4.189.848-5.123 1.379-1.86 1.058-4.98 3.562-4.98 8.453v90.33c0 4.892 3.12 7.396 4.98 8.453 1.557.886 5.676 2.651 10.294-.098l75.914-45.165c4.187-2.49 4.812-6.304 4.812-8.355s-.625-5.865-4.812-8.355l-75.914-45.165c-1.848-1.1-3.616-1.477-5.171-1.477z" fill="#de5cee"/></g></svg>