<svg id="Layer_1" enable-background="new 0 0 512 512" height="512" viewBox="0 0 512 512" width="512" xmlns="http://www.w3.org/2000/svg"><g><path d="m93.795 417.5c1.235-2.53 6.106-16.743 7.304-19-12.905-11.005-21.099-27.372-21.099-45.662 0-3.186 0-26.054 0-106.338 0-106.322 49.584-179.028 194.916-190.422-5.682-1.026-11.648-1.578-17.916-1.578-178 0-237 76-237 192v111c0 33.137 26.863 60 60 60z" fill="#cee1f2"/><path d="m470.974 208.022c-21.417-11.772-45.149-20.256-72.22-25.787-4.084-17.12-11.997-43.744-25.978-69.556-27.704-51.145-67.738-78.179-115.776-78.179-90.824 0-155.81 18.865-198.673 57.674-20.339 18.416-35.539 41.53-45.176 68.703-8.727 24.603-13.151 53.411-13.151 85.623v111.062c.035 44.084 35.91 79.938 80 79.938h3.427c8.254 23.281 30.498 40 56.573 40s48.318-16.719 56.573-40h108.854c8.254 23.281 30.498 40 56.573 40s48.318-16.719 56.573-40h13.427c44.112 0 80-35.888 80-80v-79.611c0-29.184-15.72-55.955-41.026-69.867zm1.026 149.478c0 22.056-17.944 40-40 40h-30c-11.046 0-20 8.954-20 20 0 11.028-8.972 20-20 20s-20-8.972-20-20c0-11.046-8.954-20-20-20h-142c-11.046 0-20 8.954-20 20 0 11.028-8.972 20-20 20s-20-8.972-20-20c0-11.046-8.954-20-20-20h-20c-22.056 0-40-17.944-40-40v-111c0-80.08 24.665-172 217-172 77.119 0 101.149 106.534 105.184 127.891.378 2.002 1.165 6.167 4.768 10.283 3.064 3.5 7.253 5.822 11.845 6.568 28.213 4.578 52.062 12.374 72.909 23.833 12.517 6.882 20.294 20.222 20.294 34.814zm-150-158c0 11.046-8.954 20-20 20h-198c-11.046 0-20-8.954-20-20s8.954-20 20-20h79v-43c0-11.046 8.954-20 20-20s20 8.954 20 20v43h79c11.046 0 20 8.954 20 20z" fill="#1428bf"/><path d="m143 283.5c0 13.807-11.193 25-25 25s-25-11.193-25-25 11.193-25 25-25 25 11.193 25 25zm61-25c-13.807 0-25 11.193-25 25s11.193 25 25 25 25-11.193 25-25-11.193-25-25-25zm86 0c-13.807 0-25 11.193-25 25s11.193 25 25 25 25-11.193 25-25-11.193-25-25-25zm-129 56c-13.807 0-25 11.193-25 25s11.193 25 25 25 25-11.193 25-25-11.193-25-25-25zm86 0c-13.807 0-25 11.193-25 25s11.193 25 25 25 25-11.193 25-25-11.193-25-25-25z" fill="#df5cf0"/></g></svg>