<svg id="Layer_1" enable-background="new 0 0 512 512" height="512" viewBox="0 0 512 512" width="512" xmlns="http://www.w3.org/2000/svg"><g><path d="m82 298.041v-164.082c0-55.206 44.644-99.959 99.716-99.959h-60.716c-55.229 0-100 44.771-100 100v164c0 55.228 44.771 100 100 100h60.716c-55.072 0-99.716-44.753-99.716-99.959z" fill="#cee1f2"/><path d="m392 14h-272c-66.168 0-120 53.832-120 120v164.021c0 66.157 53.823 119.979 119.979 119.979h272.021c66.168 0 120-53.832 120-120v-164c0-66.168-53.832-120-120-120zm80 284c0 44.112-35.888 80-80 80h-272.021c-44.1 0-79.979-35.879-79.979-79.979v-164.021c0-44.112 35.888-80 80-80h272c44.112 0 80 35.888 80 80zm-100 180c0 11.046-8.954 20-20 20h-192c-11.046 0-20-8.954-20-20s8.954-20 20-20h192c11.046 0 20 8.954 20 20zm-16.094-361.348c54.703 54.705 54.703 143.716 0 198.421-3.905 3.905-9.024 5.858-14.143 5.858s-10.236-1.952-14.142-5.857c-7.811-7.811-7.812-20.474-.001-28.284 39.108-39.109 39.108-102.745 0-141.854-7.811-7.811-7.81-20.474.001-28.284 7.811-7.809 20.474-7.811 28.285 0zm-171.528 28.284c-39.109 39.109-39.109 102.745 0 141.854 7.811 7.811 7.811 20.474 0 28.284-3.905 3.904-9.024 5.857-14.142 5.857-5.119 0-10.236-1.952-14.142-5.858-54.705-54.705-54.705-143.716 0-198.422 7.811-7.809 20.474-7.811 28.284 0s7.811 20.475 0 28.285z" fill="#1428bf"/><path d="m256 275c-33.084 0-60-26.916-60-60s26.916-60 60-60 60 26.916 60 60-26.916 60-60 60zm0-80c-11.028 0-20 8.972-20 20s8.972 20 20 20 20-8.972 20-20-8.972-20-20-20z" fill="#ff5cf0"/></g></svg>