<svg id="Layer_1" enable-background="new 0 0 513 513" height="512" viewBox="0 0 513 513" width="512" xmlns="http://www.w3.org/2000/svg"><g><path d="m171.63 211c0-95.627 70.276-174.84 162-188.811-9.456-1.441-19.141-2.188-29-2.188-105.486 0-191 85.514-191 191s85.514 191 191 191c9.859 0 19.544-.748 29-2.189-91.723-13.972-162-93.184-162-188.812z" fill="#cee1f2"/><path d="m301.5 422c-116.346 0-211-94.654-211-211s94.654-211 211-211c56.374 0 109.354 21.871 149.18 61.585 39.865 39.752 61.82 92.677 61.82 149.023 0 116.562-94.654 211.392-211 211.392zm0-382c-94.29 0-171 76.71-171 171s76.71 171 171 171 171-76.886 171-171.392c0-94.074-76.71-170.608-171-170.608zm-281 473c-5.137 0-10.272-1.967-14.182-5.897-7.788-7.832-7.753-20.495.079-28.284l90-89.5c7.83-7.788 20.493-7.755 28.284.079 7.788 7.832 7.753 20.495-.079 28.284l-90 89.5c-3.901 3.88-9.002 5.818-14.102 5.818z" fill="#1428bf"/><path d="m302.5 340c-35.075 0-67.954-13.757-92.58-38.737-24.622-24.977-37.906-58.059-37.406-93.153.487-34.15 14.224-66.273 38.679-90.451 24.451-24.174 56.727-37.548 90.881-37.657 17.807-.054 35.013 3.413 51.251 10.314 10.165 4.321 14.903 16.064 10.582 26.23-4.321 10.167-16.064 14.902-26.23 10.582-11.127-4.73-22.96-7.128-35.172-7.128-.102 0-.201.001-.303.001-48.762.156-88.997 39.938-89.692 88.679-.347 24.304 8.85 47.211 25.896 64.501 17.049 17.295 39.812 26.819 64.094 26.819 41.204 0 77.071-27.843 87.223-67.709.055-.213.199-.779-.338-1.47-.424-.545-.983-.821-1.664-.821h-65.221c-11.046 0-20-8.954-20-20s8.954-20 20-20h65.221c13.09 0 25.207 5.932 33.246 16.273 7.974 10.26 10.715 23.34 7.52 35.889-14.67 57.606-66.477 97.838-125.987 97.838z" fill="#de5cee"/></g></svg>