<svg id="Layer_1" enable-background="new 0 0 512 512" height="512" viewBox="0 0 512 512" width="512" xmlns="http://www.w3.org/2000/svg"><g><path d="m358.4 88.134c-17.222-15.028-39.747-24.134-64.4-24.134-47.365 0-86.869 45.334-96 90-2.055 10.053-11.604 16.683-21.71 14.906-4.278-.752-16.786-4.809-20.29-5.19-25-2.716-44.987 13.928-45.987 44.284-.245 7.428 3.106 27.416 5.414 34 2.154 6.143-.018 12.887-5.322 16.661-16.296 11.598-32.105 24.813-32.105 46.339 0 19.88.777 34.264 15 46l-5.787 14.81c-36.888-2.645-66.121-33.211-67.183-70.178-.827-28.822 15.182-53.975 38.908-66.392-3.832-9.84-5.938-20.544-5.938-31.74 0-48.325 39.175-87.5 87.5-87.5 3.688 0 7.322.231 10.89.674 8.291-51.409 52.862-90.674 106.61-90.674 45.566 0 84.538 28.22 100.4 68.134zm-146.4 343.866v-148c0-33.137 26.863-60 60-60h-60c-33.137 0-60 26.863-60 60v148c0 33.137 26.863 60 60 60h60c-33.137 0-60-26.863-60-60z" fill="#cee1f2"/><path d="m299 512h-87c-44.112 0-80-35.888-80-80v-148c0-44.112 35.888-80 80-80h87c44.112 0 80 35.888 80 80v148c0 44.112-35.888 80-80 80zm-87-268c-22.056 0-40 17.944-40 40v148c0 22.056 17.944 40 40 40h87c22.056 0 40-17.944 40-40v-148c0-22.056-17.944-40-40-40zm-113.369 124.824c2.112-10.842-4.964-21.343-15.806-23.455-24.815-4.835-42.825-26.648-42.825-51.869 0-19.599 10.811-37.433 28.212-46.54 9.028-4.725 13.061-15.482 9.363-24.978-3.036-7.794-4.575-16.032-4.575-24.482 0-37.22 30.28-67.5 67.5-67.5 2.8 0 5.636.176 8.43.521 10.677 1.328 20.492-6.039 22.205-16.663 6.902-42.796 43.434-73.858 86.865-73.858 47.626 0 86.252 37.258 87.936 84.821.188 5.323 2.492 10.352 6.4 13.97 3.909 3.618 9.092 5.526 14.421 5.306 1.562-.065 2.95-.097 4.243-.097 55.691 0 101 45.309 101 101 0 35.065-18.137 67.21-48.516 85.987-9.396 5.808-12.304 18.133-6.497 27.528 5.808 9.396 18.131 12.304 27.528 6.497 20.102-12.425 36.955-29.778 48.738-50.185 12.265-21.237 18.747-45.384 18.747-69.827 0-73.415-56.396-133.905-128.143-140.419-4.795-26.009-17.536-49.88-36.878-68.591-23.991-23.209-55.591-35.99-88.979-35.99-30.597 0-60.211 10.971-83.388 30.891-18.359 15.78-31.804 36.378-38.889 59.214-57.07 2.505-102.723 49.718-102.723 107.395 0 7.847.838 15.585 2.5 23.144-22.223 17.346-35.5 44.013-35.5 72.856 0 44.318 31.616 82.645 75.175 91.131 1.292.252 2.578.373 3.847.373 9.378 0 17.749-6.629 19.609-16.18z" fill="#1428bf"/><path d="m293 352.978h-12.022c-28.109 0-50.978-22.869-50.978-50.978v-12.022c0-11.046 8.954-20 20-20s20 8.954 20 20v12.022c0 6.053 4.925 10.978 10.978 10.978h12.022c11.046 0 20 8.954 20 20s-8.954 20-20 20z" fill="#df5cf0"/></g></svg>