<svg id="Layer_1" enable-background="new 0 0 512 512" height="512" viewBox="0 0 512 512" width="512" xmlns="http://www.w3.org/2000/svg"><g><path d="m121.11 402.795c-6.352-6.698-5.97-17.3.899-23.465 10.034-9.006 18.737-18.564 25.986-28.548 15.609-21.495 20.358-48.486 13.03-74.054-4.043-14.108-11.432-26.644-21.377-36.73.705-.438 1.405-.887 2.099-1.347 23.013-15.256 36.752-40.848 36.752-68.458v-61.193c0-20.994 8.094-36.987 25.469-50.33 16.515-12.681 33.305-18.845 51.331-18.845l.077-19.824c-.026 0-.051-.001-.077-.001-30.524 0-60.161 9.978-87.872 31.256-31.587 24.255-48.928 57.754-48.928 97.919v21.018c0 15.844-16.161 26.558-30.754 20.388-20.432-7.646-43.156 2.814-50.757 23.364-7.602 20.55 2.797 43.408 23.228 51.055l27.849 11.268c15.608 6.315 21.273 25.635 11.38 39.26-7.748 10.671-17.627 19.927-28.001 27.782-31.742 24.035-29.971 72.327 3.006 94.637 40.77 27.583 100.76 54.053 180.85 54.053.025 0 .05-.001.076-.001l-.076-19.999c-47.036 0-104.518-37.917-134.19-69.205z" fill="#cee1f2"/><path d="m255.3 512c-38.835 0-76.354-5.96-111.512-17.715-28.542-9.543-55.641-22.925-80.545-39.772-20.972-14.188-33.895-37.778-34.57-63.104-.678-25.415 10.511-48.758 30.698-64.043 9.968-7.548 18.006-15.484 23.891-23.59 1.36-1.873 1.219-3.757.86-5.007-.305-1.065-1.173-2.996-3.558-3.961l-27.63-11.181c-30.506-11.587-46.071-45.893-34.703-76.622 5.546-14.992 16.583-26.903 31.08-33.538 14.437-6.606 30.576-7.181 45.444-1.618.262.098 1.63.843 2.79.123.974-.605.956-1.466.956-1.779v-21.019c0-45.929 19.623-85.273 56.747-113.781 30.585-23.485 64.247-35.393 100.052-35.393 35.804 0 69.466 11.908 100.052 35.393 37.387 28.71 57.148 68.055 57.148 113.782v20.033c0 1.084.438 1.97 1.356 2.547 1.695 1.066 3.215.16 3.389.095 14.867-5.563 31.006-4.989 45.444 1.618 14.497 6.635 25.534 18.546 31.08 33.539 11.379 30.761-4.227 65.104-34.795 76.656l-28.358 11.183c-2.423.955-3.307 2.908-3.618 3.987-.361 1.25-.504 3.129.858 4.983 5.836 7.946 13.771 15.733 23.585 23.147 20.467 15.461 31.789 39.062 31.063 64.75-.715 25.326-13.686 48.853-34.695 62.936-25.077 16.809-52.303 30.158-80.922 39.678-35.255 11.727-72.798 17.673-111.587 17.673zm-181.328-303.92c-2.731 0-5.455.588-8.015 1.76-4.755 2.176-8.381 6.099-10.211 11.044-3.779 10.214 1.372 21.602 11.48 25.385.165.062 28.34 11.46 28.34 11.46 13.229 5.354 23.073 16.295 27.007 30.021 3.914 13.654 1.382 28.062-6.945 39.53-8.199 11.292-19.003 22.05-32.112 31.976-9.772 7.4-15.188 18.731-14.859 31.089.337 12.645 6.533 23.958 16.998 31.038 49.649 33.587 106.725 50.617 169.645 50.617 62.892 0 120.168-17.017 170.238-50.577 10.437-6.995 16.626-18.235 16.982-30.838.355-12.588-5.181-24.144-15.19-31.705-12.91-9.753-23.579-20.312-31.711-31.384-8.451-11.503-11.022-25.991-7.054-39.747 3.995-13.853 13.974-24.828 27.376-30.114s28.722-11.325 28.831-11.366c10.109-3.783 15.259-15.171 11.48-25.384-1.83-4.946-5.456-8.869-10.211-11.045-4.638-2.124-9.817-2.332-14.603-.592-13.215 5.237-28.112 3.639-39.918-4.31-11.911-8.017-19.021-21.374-19.021-35.73v-20.033c0-33.298-13.966-60.905-41.51-82.057-23.434-17.994-48.9-27.118-75.689-27.118-26.79 0-52.256 9.124-75.692 27.119-27.277 20.946-41.108 48.554-41.108 82.056v21.019c0 14.164-7.048 27.293-18.854 35.119-11.651 7.724-26.253 9.169-39.175 3.903-2.118-.759-4.311-1.136-6.499-1.136z" fill="#1428bf"/><path d="m228.5 176c0 13.807-11.193 25-25 25s-25-11.193-25-25 11.193-25 25-25 25 11.193 25 25zm78-25c-13.807 0-25 11.193-25 25s11.193 25 25 25 25-11.193 25-25-11.193-25-25-25z" fill="#ff5cf4"/></g></svg>