<svg id="Layer_1" enable-background="new 0 0 512.052 512.052" height="512" viewBox="0 0 512.052 512.052" width="512" xmlns="http://www.w3.org/2000/svg"><g><path d="m217.026 407.552c0-36.103 22.642-66.918 54.5-79.02-9.323-3.542-19.435-5.48-30-5.48-46.668 0-84.5 37.832-84.5 84.5s37.832 84.5 84.5 84.5c10.565 0 20.677-1.939 30-5.48-31.859-12.103-54.5-42.917-54.5-79.02z" fill="#cee1f2"/><path d="m495.461 26.04c-10.501-8.89-24.3-12.69-37.854-10.419-5.556.929-11.299 1.424-16.607 1.431h-.16c-18.443 0-36.71-4.192-43.086-8.092-18.846-11.524-41.598-11.956-60.866-1.153-19.267 10.802-30.77 30.438-30.77 52.526v265.126c-17.79-14.028-40.231-22.407-64.592-22.407-57.621 0-104.5 46.879-104.5 104.5s46.879 104.5 104.5 104.5c56.692 0 102.986-45.38 104.463-101.722.085-.748.128-349.997.128-349.997 0-10.689 7.225-15.894 10.331-17.635 3.106-1.742 11.317-5.188 20.437.387 15.79 9.655 43.467 13.967 63.974 13.967h.193c7.465-.01 15.472-.694 23.154-1.979 2.647-.441 4.524.748 5.409 1.497.9.762 2.41 2.45 2.41 5.198v50.331c0 2.996-1.936 5.653-4.707 6.462-4.468 1.304-14.02 3.49-27.793 3.49-10.309 0-24.107-5.693-28.581-7.9-9.873-4.919-21.872-.914-26.808 8.958-4.939 9.88-.935 21.893 8.945 26.832 2.479 1.239 24.846 12.11 46.443 12.11 17.809 0 31.036-2.769 38.997-5.092 19.726-5.756 33.503-24.203 33.503-44.86v-50.331c.002-13.793-6.036-26.816-16.563-35.728zm-253.935 446.012c-35.565 0-64.5-28.935-64.5-64.5s28.935-64.5 64.5-64.5 64.5 28.935 64.5 64.5-28.935 64.5-64.5 64.5z" fill="#1428bf"/><path d="m20.03 193.149c-5.308 0-10.604-2.1-14.538-6.261-7.588-8.027-7.231-20.686.795-28.273 63.827-60.335 147.546-93.563 235.739-93.563 11.046 0 20 8.954 20 20s-8.954 20-20 20c-77.93 0-151.892 29.346-208.261 82.632-3.865 3.654-8.806 5.465-13.735 5.465zm68.73 52.633c41.455-39.162 95.708-60.73 152.766-60.73 11.046 0 20-8.954 20-20s-8.954-20-20-20c-67.315 0-131.323 25.447-180.234 71.654-8.029 7.585-8.39 20.243-.804 28.272 3.935 4.165 9.231 6.266 14.542 6.266 4.927 0 9.866-1.81 13.73-5.462zm54.83 56.884c26.654-24.9 61.436-38.614 97.936-38.614 11.046 0 20-8.954 20-20s-8.954-20-20-20c-46.675 0-91.153 17.539-125.242 49.386-8.071 7.54-8.502 20.196-.961 28.268 3.938 4.216 9.271 6.347 14.618 6.347 4.891-.001 9.794-1.785 13.649-5.387z" fill="#df5cf0"/></g></svg>