<svg id="Layer_1" enable-background="new 0 0 512 512" height="512" viewBox="0 0 512 512" width="512" xmlns="http://www.w3.org/2000/svg"><g><path d="m80 256c0-120.176 89.826-219.372 206-234.11-9.824-1.247-19.837-1.89-30-1.89-130.339 0-236 105.661-236 236s105.661 236 236 236c10.163 0 20.176-.643 30-1.89-116.174-14.738-206-113.934-206-234.11z" fill="#cee1f2"/><path d="m256 512c-68.38 0-132.667-26.629-181.02-74.98-48.351-48.353-74.98-112.64-74.98-181.02s26.629-132.667 74.98-181.02c48.353-48.351 112.64-74.98 181.02-74.98s132.667 26.629 181.02 74.98c48.351 48.353 74.98 112.64 74.98 181.02s-26.629 132.667-74.98 181.02c-48.353 48.351-112.64 74.98-181.02 74.98zm0-472c-119.103 0-216 96.897-216 216s96.897 216 216 216 216-96.897 216-216-96.897-216-216-216zm-14 331.001h-62c-24.04 0-46.641-9.362-63.64-26.361s-26.36-39.601-26.36-63.641l.001-50.001c0-49.626 40.375-89.999 90-89.999h61.999c33.851 0 63.943 19.032 79.288 47.865l43.143-26.999c.042-.026.085-.053.128-.079 12.021-7.396 27.141-7.716 39.463-.831 12.321 6.886 19.976 19.931 19.977 34.045v.001l.001 121.998c0 14.114-7.654 27.159-19.976 34.045-12.321 6.885-27.442 6.567-39.464-.83l-43.244-26.388c-15.308 28.416-45.404 47.175-79.316 47.175zm-61.999-190.002c-27.57 0-50 22.43-50 49.999l-.001 50.001c0 13.356 5.201 25.913 14.645 35.357 9.444 9.443 22 14.645 35.355 14.645h62c24.183 0 44.858-17.074 49.161-40.599 1.186-6.481 5.487-11.963 11.5-14.655s12.966-2.251 18.591 1.182l62.748 38.289-.002-118.411-62.554 39.146c-5.62 3.516-12.616 4.02-18.681 1.346-6.064-2.675-10.41-8.182-11.603-14.702-4.337-23.715-25.472-41.598-49.161-41.598z" fill="#1428bf"/><path d="m203.088 294.711 40.19-24.088c10.296-6.171 10.296-21.076 0-27.247l-40.19-24.088c-10.601-6.354-24.088 1.274-24.088 13.624v48.176c0 12.349 13.487 19.976 24.088 13.623z" fill="#de5cee"/></g></svg>