<svg id="Layer_1" enable-background="new 0 0 512.05 512.05" height="512" viewBox="0 0 512.05 512.05" width="512" xmlns="http://www.w3.org/2000/svg"><g><path d="m193.063 176.92c26.115-27.59 28.232-73.423 31.684-124.058 1.866-27.372 32.92-42.062 55.46-26.421 4.212 2.922 8.307 5.945 12.296 9.052-3.33 4.885-5.339 10.765-5.95 17.369-8.528 92.187-19.528 162.187-127.528 162.187 0 .001 33.895-35.527 34.038-38.129zm-111.232 117.13c0-50.084 13.283-76.413 38.286-103.878 3.98-4.372 8.649-7.47 13.612-9.396-1.087-1.788-2.929-8.735-3.031-9.039-8.826-26.135-42.338-33.277-60.908-12.878-25.003 27.465-49.765 71.019-49.765 124.276 0 115.381 94.216 208.916 209.597 208.916 10.164 0 20.16-.739 29.946-2.141-100.373-13.654-177.737-91.306-177.737-195.86z" fill="#cee1f2"/><path d="m229.622 512.05c-126.6 0-229.597-102.691-229.597-228.916 0-67.302 34.444-115.186 54.975-137.739 13.511-14.842 33.291-21.246 52.905-17.143 19.687 4.122 35.291 17.986 41.741 37.085.608 1.809.863 3.347 1.008 4.78 1.418 2.519 3.605 3.719 4.917 4.24 1.645.654 4.951 1.466 8.617-.448 31.914-16.679 36.071-55.159 40.209-116.561l.396-5.847c1.367-20.054 13.001-37.227 31.121-45.937 18.234-8.763 39.053-7.102 55.694 4.444 78.247 54.295 115.354 135.762 130.508 179.491 3.617 10.437-1.912 21.829-12.349 25.446-10.438 3.616-21.83-1.911-25.446-12.349-13.559-39.125-46.596-111.902-115.517-159.726-6.714-4.659-13.12-2.432-15.562-1.256-2.388 1.148-8.002 4.675-8.542 12.605l-.394 5.815c-2.049 30.407-3.985 59.127-11.404 84.292-9.1 30.864-25.516 52.136-50.187 65.029-13.016 6.803-28.302 7.592-41.939 2.162-13.509-5.377-23.962-16.322-28.68-30.027-.671-1.952-.93-3.653-1.074-5.185-3.006-6.49-8.811-8.382-11.315-8.906-2.692-.566-9.549-1.211-15.128 4.918-13.397 14.716-44.555 54.971-44.555 110.812 0 104.169 85.053 188.916 189.597 188.916 27.568 0 54.167-5.795 79.057-17.226 10.037-4.609 21.912-.208 26.521 9.829 4.61 10.038.209 21.912-9.829 26.521-30.162 13.857-62.377 20.881-95.748 20.881z" fill="#1428bf"/><path d="m402.025 445.979c-13.417.001-26.829-4.19-38.025-12.574-46.197-34.591-71.085-76.022-71.971-119.813-.003-.135-.004-.27-.004-.404 0-35.917 29.159-65.138 65-65.138 17.448 0 33.312 6.91 45 18.138 11.688-11.228 27.552-18.138 45-18.138 35.841 0 65 29.221 65 65.138 0 .135-.001.27-.004.404-.886 43.791-25.773 85.223-71.972 119.814-11.192 8.381-24.61 12.572-38.024 12.573zm-69.999-132.976c.901 39.091 30.908 69.634 55.949 88.384 8.274 6.195 19.828 6.193 28.099.001 25.042-18.751 55.049-49.294 55.95-88.385-.099-13.776-11.275-24.953-24.999-24.953-13.785 0-25 11.215-25 25 0 11.046-8.954 20-20 20s-20-8.954-20-20c0-13.785-11.215-25-25-25-13.724 0-24.9 11.177-24.999 24.953zm129.999-237.175c0-13.727-11.193-24.778-25-24.778s-25 11.128-25 24.854c.487 23.88 16.529 43.276 35.535 57.381 8.56 6.353 20.37 6.353 28.93 0 19.006-14.105 35.048-33.501 35.535-57.381 0-13.726-11.193-24.854-25-24.854s-25 11.052-25 24.778" fill="#df5cf0"/></g></svg>