<svg id="Layer_1" enable-background="new 0 0 512.198 512.198" height="512" viewBox="0 0 512.198 512.198" width="512" xmlns="http://www.w3.org/2000/svg"><g><path d="m106.099 342v-222c0-55.229 44.771-100 100-100h-61c-55.229 0-100 44.771-100 100v222c0 55.228 44.771 100 100 100h61c-55.228 0-100-44.772-100-100z" fill="#cee1f2"/><path d="m442.927 512.198c-10.539 0-20.861-3.861-29.17-11.299l-49.87-43.885c-8.292-7.297-9.099-19.935-1.802-28.227 7.297-8.293 19.936-9.099 28.227-1.803l49.945 43.95c.056.05.112.1.167.149.478.429 1.93 1.737 4.303.681 2.373-1.057 2.373-3.012 2.373-3.654v-348.11c0-44.112-35.888-80-80-80h-222c-44.112 0-80 35.888-80 80v222c0 44.112 35.888 80 80 80h154c11.046 0 20 8.954 20 20s-8.954 20-20 20h-154c-66.168 0-120-53.832-120-120v-222c0-66.168 53.832-120 120-120h222c66.168 0 120 53.832 120 120v348.111c0 17.623-10.001 33.024-26.1 40.194-5.868 2.613-12.007 3.893-18.073 3.893zm-92.091-248.071c-9.319-5.933-21.68-3.184-27.61 6.136-.247.386-25.137 38.737-67.127 38.737s-67.878-38.351-68.125-38.737c-5.93-9.319-18.291-12.068-27.61-6.136-9.319 5.93-12.066 18.292-6.136 27.61 1.488 2.338 38.17 57.263 101.871 57.263s99.385-54.925 100.873-57.263c5.93-9.318 3.183-21.68-6.136-27.61z" fill="#1428bf"/><path d="m334.099 212c-11.046 0-20-8.954-20-20v-55c0-11.046 8.954-20 20-20s20 8.954 20 20v55c0 11.046-8.954 20-20 20zm-135-20v-55c0-11.046-8.954-20-20-20s-20 8.954-20 20v55c0 11.046 8.954 20 20 20s20-8.954 20-20z" fill="#de5cee"/></g></svg>