<svg id="Layer_1" enable-background="new 0 0 512 512" height="512" viewBox="0 0 512 512" width="512" xmlns="http://www.w3.org/2000/svg"><g><path d="m82 312.03v-212.083c0-10.739 1.696-21.079 4.823-30.774-.13-.094-9.632-10.22-9.737-10.387-.178-.131-.356-.262-.535-.393-32.922 16.366-55.551 50.336-55.551 89.596v164c0 55.229 44.771 100 100 100h60.716c-55.072 0-99.716-44.753-99.716-99.959z" fill="#cee1f2"/><path d="m352 511.989h-192c-11.046 0-20-8.954-20-20s8.954-20 20-20h192c11.046 0 20 8.954 20 20s-8.954 20-20 20zm38-252v-179.978c0-44.112-35.888-80-80-80h-107c-44.112 0-80 35.888-80 80v179.978c0 44.112 35.888 80 80 80h107c44.112 0 80-35.888 80-80zm-80-219.978c22.056 0 40 17.944 40 40v179.978c0 22.056-17.944 40-40 40h-107c-22.056 0-40-17.944-40-40v-179.978c0-22.056 17.944-40 40-40zm202 271.978v-164c0-21.181-5.6-42.008-16.195-60.231-10.266-17.658-24.974-32.512-42.534-42.958-9.494-5.647-21.767-2.528-27.414 6.964-5.647 9.493-2.529 21.767 6.963 27.413 24.168 14.376 39.18 40.743 39.18 68.812v164c0 44.112-35.888 80-80 80h-272.021c-44.1 0-79.979-35.879-79.979-79.98v-164.02c0-28.068 15.012-54.436 39.179-68.812 9.493-5.646 12.611-17.92 6.963-27.413-5.646-9.492-17.918-12.611-27.414-6.964-17.559 10.446-32.267 25.3-42.533 42.957-10.595 18.224-16.195 39.051-16.195 60.232v164.021c0 66.157 53.823 119.979 119.979 119.979h272.021c66.168 0 120-53.832 120-120z" fill="#1428bf"/><path d="m290 120.011h-67c-11.046 0-20-8.954-20-20s8.954-20 20-20h67c11.046 0 20 8.954 20 20s-8.954 20-20 20zm20 50c0-11.046-8.954-20-20-20h-67c-11.046 0-20 8.954-20 20s8.954 20 20 20h67c11.046 0 20-8.954 20-20zm-40 70c0-11.046-8.954-20-20-20h-27c-11.046 0-20 8.954-20 20s8.954 20 20 20h27c11.046 0 20-8.954 20-20z" fill="#df5cf0"/></g></svg>