<svg id="Layer_1" enable-background="new 0 0 512 512" height="512" viewBox="0 0 512 512" width="512" xmlns="http://www.w3.org/2000/svg"><g><path d="m81 262v-42c0-36.106 19.138-67.74 47.82-85.319-.011-4.893.026-9.787.122-14.681h-8.942c-55.229 0-100 44.771-100 100v42c0 55.229 44.771 100 100 100h61c-55.229 0-100-44.771-100-100z" fill="#cee1f2"/><path d="m392 382h-272c-66.168 0-120-53.832-120-120v-42c0-59.355 43.318-108.784 100-118.333v-35.667c0-33.084 26.916-60 60-60 11.046 0 20 8.954 20 20s-8.954 20-20 20c-11.028 0-20 8.972-20 20v54c0 11.046-8.954 20-20 20-44.112 0-80 35.888-80 80v42c0 44.112 35.888 80 80 80h272c44.112 0 80-35.888 80-80v-42c0-44.112-35.888-80-80-80h-192c-11.046 0-20-8.954-20-20s8.954-20 20-20h192c66.168 0 120 53.832 120 120v42c0 66.168-53.832 120-120 120z" fill="#1428bf"/><path d="m308 512h-104c-33.084 0-60-26.916-60-60v-20c0-11.046 8.954-20 20-20s20 8.954 20 20v20c0 11.028 8.972 20 20 20h104c11.028 0 20-8.972 20-20v-20c0-11.046 8.954-20 20-20s20 8.954 20 20v20c0 33.084-26.916 60-60 60zm-98-487c0 13.807 11.193 25 25 25s25-11.193 25-25-11.193-25-25-25-25 11.193-25 25z" fill="#ff5cf0"/></g></svg>