<svg id="Layer_1" enable-background="new 0 0 512 512" height="512" viewBox="0 0 512 512" width="512" xmlns="http://www.w3.org/2000/svg"><g><path d="m81 392v-272c0-55.229 44.771-100 100-100h-61c-55.229 0-100 44.771-100 100v272c0 55.228 44.771 100 100 100h61c-55.229 0-100-44.772-100-100z" fill="#cee1f2"/><path d="m392 512h-272c-66.168 0-120-53.832-120-120v-272c0-66.168 53.832-120 120-120h272c66.168 0 120 53.832 120 120v272c0 66.168-53.832 120-120 120zm-272-472c-44.112 0-80 35.888-80 80v272c0 44.112 35.888 80 80 80h272c44.112 0 80-35.888 80-80v-272c0-44.112-35.888-80-80-80z" fill="#1428bf"/><path d="m326.453 416.989c-8.403 0-16.853-2.01-24.673-6.08l-39.63-20.624c-3.852-2.004-8.449-2.006-12.301 0l-39.629 20.624c-18.112 9.427-39.594 7.801-56.065-4.24-16.287-11.907-24.273-31.607-20.842-51.414l7.568-43.683c.706-4.078-.673-8.25-3.689-11.16l-32.061-30.937c-14.567-14.058-19.763-34.724-13.56-53.934 6.246-19.343 22.693-33.166 42.922-36.075l44.307-6.374c4.273-.615 7.952-3.243 9.84-7.029l19.815-39.744c9.017-18.085 27.234-29.319 47.545-29.319s38.528 11.234 47.544 29.319l19.814 39.743c1.889 3.787 5.567 6.415 9.841 7.03l44.307 6.374c20.229 2.909 36.676 16.732 42.922 36.075 6.203 19.21 1.008 39.876-13.56 53.933l-32.061 30.938c-3.017 2.91-4.396 7.082-3.689 11.159l7.568 43.684c3.432 19.807-4.555 39.507-20.842 51.414-9.358 6.841-20.334 10.32-31.391 10.32zm-70.453-68.203c8.456 0 16.909 2.005 24.617 6.017l39.629 20.624c6.617 3.444 11.989.413 13.992-1.05 1.912-1.397 6.231-5.395 5.036-12.294l-7.568-43.683c-2.974-17.158 2.756-34.644 15.326-46.773l32.061-30.937c5.107-4.928 3.988-10.633 3.271-12.856-.739-2.288-3.246-7.725-10.553-8.775l-44.307-6.374c-17.267-2.483-32.198-13.24-39.943-28.775l-19.813-39.742c-3.227-6.47-9.29-7.168-11.748-7.168s-8.521.698-11.747 7.167l-19.814 39.743c-7.744 15.534-22.676 26.291-39.942 28.774l-44.307 6.374c-7.307 1.051-9.813 6.487-10.553 8.775-.718 2.224-1.837 7.929 3.271 12.857l32.061 30.936c12.57 12.13 18.3 29.615 15.326 46.774l-7.568 43.682c-1.195 6.899 3.124 10.896 5.036 12.294 2.002 1.464 7.371 4.492 13.993 1.05l39.628-20.624c7.705-4.01 16.162-6.016 24.616-6.016z" fill="#df5cf0"/></g></svg>