<svg id="Layer_1" enable-background="new 0 0 512 512" height="512" viewBox="0 0 512 512" width="512" xmlns="http://www.w3.org/2000/svg"><g><path d="m181 492h-61c-55.229 0-100-44.772-100-100v-272c0-55.229 44.771-100 100-100h61c-55.229 0-100 44.771-100 100v272c0 55.228 44.771 100 100 100zm110.762-364.238-13.238-12.238-96.109 96.109c-17.403 17.403-29.264 39.569-34.088 63.703l-11.327 56.664s60.469-12.15 62.354-12.62l14.972-81.567c4.824-24.135 15.685-48.3 33.088-65.704z" fill="#cee1f2"/><path d="m392 512h-272c-66.168 0-120-53.832-120-120v-272c0-66.168 53.832-120 120-120h272c66.168 0 120 53.832 120 120v272c0 66.168-53.832 120-120 120zm-272-472c-44.112 0-80 35.888-80 80v272c0 44.112 35.888 80 80 80h272c44.112 0 80-35.888 80-80v-272c0-44.112-35.888-80-80-80zm17 312c-5.252 0-10.354-2.07-14.143-5.857-4.728-4.729-6.78-11.506-5.47-18.062l11.326-56.664c5.616-28.099 19.295-53.662 39.558-73.926l96.109-96.109c13.789-13.788 32.121-21.382 51.62-21.382s37.831 7.594 51.619 21.382c13.788 13.787 21.381 32.119 21.381 51.618s-7.594 37.831-21.382 51.619l-96.108 96.109c-20.264 20.263-45.827 33.941-73.926 39.558l-56.664 11.326c-1.304.261-2.617.388-3.92.388zm179-232c-8.814 0-17.102 3.433-23.334 9.665l-96.109 96.11c-14.66 14.659-24.556 33.152-28.618 53.48l-5.447 27.253 27.253-5.447c20.328-4.062 38.821-13.958 53.48-28.618l96.109-96.109c6.233-6.232 9.666-14.52 9.666-23.334s-3.433-17.102-9.666-23.334c0-.001 0-.001 0-.001-6.232-6.232-14.52-9.665-23.334-9.665z" fill="#1428bf"/><path d="m408 432h-304c-11.046 0-20-8.954-20-20s8.954-20 20-20h304c11.046 0 20 8.954 20 20s-8.954 20-20 20z" fill="#ff5cf0"/></g></svg>