<svg id="Layer_1" enable-background="new 0 0 512.391 512.391" height="512" viewBox="0 0 512.391 512.391" width="512" xmlns="http://www.w3.org/2000/svg"><g><path d="m171.326 210.999c0-95.627 70.276-174.84 162-188.811-9.456-1.441-19.141-2.188-29-2.188-105.486 0-191 85.514-191 191s85.514 191 191 191c9.859 0 19.544-.748 29-2.189-91.724-13.972-162-93.184-162-188.812z" fill="#cee1f2"/><path d="m301.195 422c-116.346 0-211-94.654-211-211s94.654-211 211-211 211 94.654 211 211-94.654 211-211 211zm0-382c-94.29 0-171 76.71-171 171s76.71 171 171 171 171-76.71 171-171-76.71-171-171-171zm57 278.945h-122c-33.084 0-60-26.916-60-60v-56c0-33.084 26.916-60 60-60h122c33.084 0 60 26.916 60 60v56c0 33.084-26.916 60-60 60zm-122-136c-11.028 0-20 8.972-20 20v56c0 11.028 8.972 20 20 20h122c11.028 0 20-8.972 20-20v-56c0-11.028-8.972-20-20-20z" fill="#1428bf"/><path d="m322.195 230.945c0 13.807-11.193 25-25 25s-25-11.193-25-25 11.193-25 25-25 25 11.193 25 25zm-287.897 275.627 90-89.5c7.832-7.789 7.867-20.452.079-28.284-7.791-7.834-20.454-7.867-28.284-.079l-90 89.5c-7.832 7.789-7.867 20.452-.079 28.284 3.909 3.931 9.045 5.897 14.182 5.897 5.1.001 10.2-1.938 14.102-5.818zm322.897-396.627c0-18.196-14.804-33-33-33h-54c-18.196 0-33 14.804-33 33 0 11.046 8.954 20 20 20 8.583 0 15.903-5.407 18.741-13h42.518c2.838 7.593 10.158 13 18.741 13 11.046 0 20-8.954 20-20z" fill="#df5cf0"/></g></svg>