<svg id="Layer_1" enable-background="new 0 0 512.005 512.005" height="512" viewBox="0 0 512.005 512.005" width="512" xmlns="http://www.w3.org/2000/svg"><g><path d="m142.002 431.991s0-41 0-70-10.145-40.912-18.816-48c-6.877-5.621-8.162-9.681-3.131-17l27.947-41h-66l-30.607 44.528c-14.344 22.214 1.604 51.494 28.047 51.494l2.56-.022v80c0 33.137 26.863 60 60 60h60c-33.137 0-60-26.863-60-60z" fill="#cee1f2"/><path d="m369.002 195.991c-11.046 0-20-8.954-20-20v-95.977c0-22.056-17.944-40-40-40h-107c-22.056 0-40 17.944-40 40v95.978c0 11.046-8.954 20-20 20s-20-8.954-20-20v-95.978c0-44.112 35.888-80 80-80h107c44.112 0 80 35.888 80 80v95.978c0 11.045-8.954 19.999-20 19.999zm133.972-50.744c-9.235-6.06-21.634-3.485-27.693 5.75l-55.764 84.994h-327.913l-54.8-84.871c-5.992-9.28-18.372-11.945-27.65-5.953-9.279 5.991-11.945 18.371-5.953 27.65l54.105 83.795-22.392 32.578c-.108.159-.215.318-.319.48-10.611 16.434-11.391 37.313-2.034 54.492 6.471 11.88 17.058 20.648 29.442 24.927v62.901c0 44.112 35.888 80 80 80h227c44.112 0 80-35.888 80-80 0-11.046-8.954-20-20-20s-20 8.954-20 20c0 22.056-17.944 40-40 40h-227c-22.056 0-40-17.944-40-40v-80c0-5.335-2.131-10.448-5.92-14.204-3.747-3.715-8.809-5.796-14.08-5.796-.058 0-2.63.022-2.63.022-7.129-.031-10.545-4.89-11.685-6.982-1.131-2.077-3.335-7.515.386-13.468l24.45-35.572h325.958l24.363 35.438c3.826 5.97 1.626 11.463.494 13.56-1.14 2.112-4.571 7.025-11.777 7.025h-269.56c-11.046 0-20 8.954-20 20s8.954 20 20 20h269.56c19.643 0 37.643-10.737 46.976-28.022 9.332-17.284 8.436-38.225-2.341-54.648-.079-.12-.159-.24-.241-.359l-22.19-32.276 54.959-83.767c6.059-9.236 3.484-21.635-5.751-27.694z" fill="#1428bf"/><path d="m289.002 120.014h-67c-11.046 0-20-8.954-20-20s8.954-20 20-20h67c11.046 0 20 8.954 20 20s-8.954 20-20 20zm-20 50c0-11.046-8.954-20-20-20h-27c-11.046 0-20 8.954-20 20s8.954 20 20 20h27c11.046 0 20-8.955 20-20z" fill="#df5cf0"/></g></svg>